<?xml version="1.0" encoding="UTF-8"?>
<svg xmlns="http://www.w3.org/2000/svg" xmlns:xlink="http://www.w3.org/1999/xlink" width="807.7pt" height="1159.9pt" viewBox="0 0 807.7 1159.9" version="1.1">
<defs>
<clipPath id="clip1">
  <path d="M 0 153 L 807.699219 153 L 807.699219 1159.898438 L 0 1159.898438 Z M 0 153 "/>
</clipPath>
</defs>
<g id="surface1">
<g clip-path="url(#clip1)" clip-rule="nonzero">
<path style=" stroke:none;fill-rule:evenodd;fill:rgb(0.392151%,2.352905%,2.745056%);fill-opacity:1;" d="M 806.703125 153.050781 L 0.527344 153.378906 L 2.335938 768.570313 C 2.335938 900.003906 10.929688 945.710938 105.300781 1038.917969 C 107.246094 1040.835938 108.621094 1042.953125 110.679688 1044.816406 L 140.925781 1070.148438 C 200.453125 1117.34375 304.6875 1159.730469 404.300781 1159.796875 C 502.628906 1159.867188 590.683594 1127.667969 665.039063 1068.417969 C 669.40625 1064.941406 672.746094 1061.875 676.945313 1058.574219 C 686.078125 1051.398438 702.148438 1033.984375 710.511719 1026.15625 C 724.011719 1013.519531 749.238281 979.453125 759.578125 964.902344 C 773.53125 945.285156 773.613281 944.203125 783.65625 922.960938 C 807.785156 871.910156 807.589844 865.890625 807.589844 814.597656 L 806.753906 197 Z M 806.703125 153.050781 "/>
</g>
<path style=" stroke:none;fill-rule:evenodd;fill:rgb(62.304688%,85.9375%,95.3125%);fill-opacity:1;" d="M 18.433594 836.042969 C 21.242188 835.355469 78.070313 761.0625 85.628906 752.222656 L 160.269531 839.679688 L 233.039063 752.847656 L 313.371094 843.140625 L 389.585938 752.535156 L 470.265625 846.277344 L 534.578125 770.339844 L 550.191406 751.664063 L 637.269531 853.847656 L 647.351563 841.429688 L 722.148438 752.003906 L 793.382813 832.671875 L 793.300781 474.171875 L 792.9375 172.351563 L 18.058594 172.339844 Z M 18.433594 836.042969 "/>
<path style=" stroke:none;fill-rule:evenodd;fill:rgb(100%,100%,100%);fill-opacity:1;" d="M 751.671875 953.65625 C 756.734375 950.976563 771.1875 923.699219 774.921875 916.035156 C 778.15625 909.402344 781.078125 901.492188 783.234375 893.933594 C 786.160156 883.667969 785.679688 887.523438 776.34375 874.148438 L 723.660156 803.4375 C 711.980469 819.378906 688.320313 849.722656 678.945313 863.441406 C 676.992188 866.296875 673.765625 869.699219 672.488281 872.785156 C 676.929688 879.472656 692.734375 900.296875 694.648438 904.457031 L 636.089844 904.234375 L 600.882813 862.128906 C 584.414063 843 568.378906 822.945313 551.933594 803.628906 L 505.425781 864.96875 L 529.335938 904.425781 L 472.785156 904.226563 L 404.195313 819.90625 L 390.546875 803.457031 L 308.53125 904.511719 L 249.453125 904.265625 L 280.660156 858.890625 L 234.941406 803.460938 L 157.453125 904.390625 L 103.421875 904.289063 L 137.308594 858.019531 L 87.699219 797.640625 C 68.746094 822.660156 49.921875 847.824219 30.773438 872.683594 C 23.84375 881.671875 22.332031 880.855469 32.324219 905.230469 C 35.9375 914.035156 52.734375 950.53125 58.246094 953.078125 C 61.832031 954.734375 154.867188 953.65625 161.136719 953.65625 Z M 751.671875 953.65625 "/>
<path style=" stroke:none;fill-rule:evenodd;fill:rgb(0%,2.352905%,3.137207%);fill-opacity:1;" d="M 434.355469 699.605469 L 478.539063 699.597656 L 478.535156 523.261719 C 498.742188 520.578125 509.492188 526.222656 518.488281 538 C 527.980469 550.425781 525.476563 568.945313 525.476563 587.070313 C 525.476563 624.554688 525.296875 662.085938 525.496094 699.566406 L 569.632813 699.597656 C 568.988281 664.882813 569.574219 629.628906 569.574219 594.882813 C 569.574219 566.972656 573.289063 549.988281 557.828125 528.222656 C 553.496094 522.125 547.828125 519.851563 544.214844 514.988281 C 548.097656 510.265625 552.503906 510.160156 559.054688 501.253906 C 561.597656 497.792969 567.871094 487.214844 568.976563 482.523438 C 570.746094 474.988281 569.574219 326.003906 569.574219 310.90625 C 569.574219 276.203125 575.878906 230.589844 547.445313 218.101563 C 535.921875 213.039063 507.433594 215.128906 492.878906 215.128906 C 473.394531 215.128906 453.824219 214.941406 434.347656 215.160156 Z M 434.355469 699.605469 "/>
<path style=" stroke:none;fill-rule:evenodd;fill:rgb(0.392151%,2.352905%,2.745056%);fill-opacity:1;" d="M 263.148438 699.382813 L 303.109375 699.203125 C 304.191406 695.046875 303.652344 561.933594 303.226563 547.121094 C 302.785156 531.574219 302.195313 510.816406 303.285156 495.570313 L 348.246094 673.523438 C 350.367188 681.964844 353.121094 691.269531 354.414063 699.644531 L 390.328125 699.019531 L 390.59375 214.539063 L 352.226563 214.628906 L 350.066406 418.953125 L 322.164063 320.1875 C 311.894531 284.867188 302.820313 249.601563 292.273438 214.570313 L 263.191406 214.660156 Z M 263.148438 699.382813 "/>
<path style=" stroke:none;fill-rule:evenodd;fill:rgb(0.392151%,2.352905%,2.745056%);fill-opacity:1;" d="M 211.40625 214.761719 L 166.351563 215.171875 C 167.257813 252.03125 166.414063 289.785156 166.414063 326.539063 C 166.414063 369.644531 167.566406 656.851563 165.480469 659.21875 C 160.398438 662.152344 135.21875 660.5 127.203125 660.683594 C 124.050781 655.390625 124.554688 657.773438 124.617188 649.605469 C 125.414063 543.152344 124.621094 434.070313 124.621094 327.40625 C 124.621094 290.363281 123.769531 252.308594 124.6875 215.390625 L 78.003906 214.710938 C 77.007813 236.761719 77.890625 260.871094 77.890625 283.117188 L 77.890625 627.886719 C 77.890625 647.457031 74.992188 674.925781 86.09375 688.164063 C 89.289063 691.980469 89.429688 694.582031 95.238281 696.480469 C 107.773438 700.566406 129.609375 699.230469 144.636719 699.246094 C 155.8125 699.257813 167.351563 699.324219 178.519531 699.558594 C 185.617188 699.707031 187.152344 698.273438 192.304688 695.53125 C 199.109375 691.917969 197.449219 693.253906 201.636719 687.496094 C 205.34375 682.402344 211.4375 671.25 211.535156 663.535156 C 212.234375 607.347656 211.492188 547.230469 211.492188 490.671875 L 211.492188 283.984375 C 211.492188 261.28125 212.234375 237.300781 211.40625 214.761719 Z M 211.40625 214.761719 "/>
<path style=" stroke:none;fill-rule:evenodd;fill:rgb(62.304688%,85.9375%,95.3125%);fill-opacity:1;" d="M 742.132813 966.863281 L 67.792969 966.207031 C 72.222656 977.566406 94.714844 1006.40625 106.117188 1016.382813 C 130.425781 1037.652344 121.511719 1032.128906 153.320313 1032.609375 C 170.113281 1032.859375 186.886719 1032.808594 203.691406 1032.808594 L 682.203125 1033.542969 C 689.691406 1032.503906 720.191406 998.4375 726.730469 990.289063 C 729.0625 987.382813 730.175781 985.46875 732.21875 982.730469 C 734.277344 979.96875 741.492188 969.847656 742.132813 966.863281 Z M 742.132813 966.863281 "/>
<path style=" stroke:none;fill-rule:evenodd;fill:rgb(89.451599%,7.054138%,8.227539%);fill-opacity:1;" d="M 140.601563 1046.757813 C 142.171875 1051.90625 185.265625 1078.757813 193.578125 1083.515625 C 253.453125 1117.78125 334.136719 1145.175781 406.035156 1144.648438 C 486.144531 1144.0625 583.050781 1115.320313 647.632813 1067.507813 C 651.988281 1064.285156 670.796875 1050.367188 671.886719 1045.597656 Z M 140.601563 1046.757813 "/>
<path style=" stroke:none;fill-rule:evenodd;fill:rgb(0.392151%,2.352905%,2.745056%);fill-opacity:1;" d="M 735.605469 599.703125 L 697.019531 599.707031 C 697.296875 619.308594 696.949219 638.832031 697.097656 658.296875 C 697.214844 673.785156 691.285156 669.3125 663.949219 669.535156 C 657.433594 669.589844 656.789063 669.707031 652.089844 666.757813 C 651.203125 531.164063 652.703125 395.027344 651.882813 259.648438 C 651.789063 244.980469 655.09375 246.898438 668.304688 246.910156 C 676.351563 246.921875 690.039063 246.160156 697.066406 247.339844 L 696.578125 317.476563 L 735.617188 317.484375 C 735.464844 297.933594 735.59375 278.34375 735.59375 258.800781 C 735.59375 240.949219 735.464844 226.460938 719.0625 215.859375 C 714.789063 213.101563 648.605469 215.140625 633.546875 215.089844 C 603.871094 215 610.171875 250.910156 610.171875 279.640625 L 610.171875 661.753906 C 610.191406 674.695313 610.179688 676.144531 613.425781 688.046875 C 617.789063 704.039063 647.464844 700.683594 658.746094 700.683594 C 669.351563 700.683594 710.09375 702.070313 717.265625 700.285156 C 726.765625 697.917969 730.410156 694.917969 732.894531 686.332031 C 736.148438 675.085938 735.59375 671.414063 735.59375 659.148438 C 735.59375 639.339844 735.496094 619.507813 735.605469 599.703125 Z M 735.605469 599.703125 "/>
<path style=" stroke:none;fill-rule:evenodd;fill:rgb(62.304688%,85.9375%,95.3125%);fill-opacity:1;" d="M 478.535156 476.210938 C 486.738281 476.917969 509.179688 477.136719 517.105469 476.367188 C 528.488281 475.269531 525.476563 459.664063 525.476563 445.511719 L 525.476563 287.457031 C 525.480469 273.945313 525.546875 263.878906 515.644531 258.628906 C 509.3125 255.261719 487.277344 255.839844 478.734375 256.78125 Z M 478.535156 476.210938 "/>
<path style=" stroke:none;fill-rule:evenodd;fill:rgb(89.451599%,7.054138%,8.227539%);fill-opacity:1;" d="M 294.1875 889.714844 L 304.289063 889.671875 L 390.007813 788.925781 L 474.960938 889.59375 L 484.613281 889.601563 L 389.871094 775.78125 L 294.1875 889.71875 Z M 294.1875 889.714844 "/>
<path style=" stroke:none;fill-rule:evenodd;fill:rgb(89.451599%,3.529358%,8.616638%);fill-opacity:1;" d="M 793.253906 870.609375 C 788.828125 869.238281 733.121094 791.714844 723.453125 781.414063 L 654.605469 865.59375 L 670.242188 887.292969 L 661.277344 887.246094 L 644.402344 865.992188 L 722.335938 770.140625 L 793.101563 858.8125 C 795.238281 863.003906 794.621094 866.703125 793.253906 870.609375 Z M 793.253906 870.609375 "/>
<path style=" stroke:none;fill-rule:evenodd;fill:rgb(89.451599%,7.054138%,8.227539%);fill-opacity:1;" d="M 307.820313 863.402344 L 286.6875 890.023438 L 277.914063 890.042969 L 298.703125 862.367188 L 234.285156 785.542969 L 144.519531 890.035156 L 135.800781 890.035156 L 233.65625 771.945313 Z M 307.820313 863.402344 "/>
<path style=" stroke:none;fill-rule:evenodd;fill:rgb(89.451599%,3.529358%,8.616638%);fill-opacity:1;" d="M 19.246094 869.328125 L 87.824219 779.6875 L 148.527344 855.992188 L 122.003906 889.960938 L 129.882813 889.953125 L 157.277344 855.148438 L 87.199219 769.304688 L 18.144531 856.796875 C 16.328125 862.996094 19.0625 866.253906 19.246094 869.332031 Z M 19.246094 869.328125 "/>
<path style=" stroke:none;fill-rule:evenodd;fill:rgb(89.451599%,7.054138%,8.227539%);fill-opacity:1;" d="M 476.597656 863.402344 L 497.730469 890.023438 L 506.503906 890.042969 L 485.714844 862.367188 L 550.132813 785.542969 L 639.898438 890.035156 L 648.613281 890.035156 L 550.761719 771.945313 Z M 476.597656 863.402344 "/>
<path style=" stroke:none;fill-rule:evenodd;fill:rgb(100%,100%,100%);fill-opacity:1;" d="M 0.046875 148.410156 L 806.546875 148.410156 L 806.546875 0.410156 L 0.046875 0.410156 Z M 0.046875 148.410156 "/>
<path style=" stroke:none;fill-rule:evenodd;fill:rgb(1.177979%,3.529358%,3.529358%);fill-opacity:1;" d="M 0.480469 32.578125 L 23.070313 32.859375 L 23.09375 44.941406 L 36.855469 45.121094 L 36.933594 58.679688 L 50.332031 58.679688 L 50.3125 71.609375 L 50.3125 85.769531 L 36.96875 85.769531 L 36.847656 97.660156 L 22.964844 97.800781 L 23.027344 111.019531 L 0.507813 111.289063 L 0.449219 124.75 L 806.507813 125.050781 L 806.695313 111.148438 L 786.246094 111.199219 L 786.304688 97.671875 L 772.761719 97.660156 L 772.761719 85.769531 L 759.191406 85.769531 L 759.191406 58.679688 L 772.761719 58.671875 L 772.761719 45.089844 L 786.253906 45.101563 L 786.246094 32.910156 L 806.722656 32.910156 L 806.695313 19.890625 L 0.527344 19.960938 Z M 0.480469 32.578125 "/>
<path style=" stroke:none;fill-rule:evenodd;fill:rgb(0.392151%,2.352905%,2.745056%);fill-opacity:1;" d="M 0.527344 148.980469 L 806.722656 149.058594 L 806.722656 133.148438 L 604.90625 132.730469 L 50.847656 132.730469 C 34.964844 132.730469 15.996094 131.789063 0.496094 132.871094 Z M 0.527344 148.980469 "/>
<path style=" stroke:none;fill-rule:evenodd;fill:rgb(0%,2.352905%,3.137207%);fill-opacity:1;" d="M 0.5 15.960938 L 806.722656 16.308594 L 806.722656 -0.0585938 L 0.53125 0.5 Z M 0.5 15.960938 "/>
<path style=" stroke:none;fill-rule:evenodd;fill:rgb(100%,100%,100%);fill-opacity:1;" d="M 143.390625 58.660156 L 158.941406 58.988281 L 158.945313 72.378906 L 158.945313 85.769531 L 143.488281 85.769531 L 143.410156 109.769531 L 157.195313 110.101563 L 157.308594 96.011719 L 173.160156 96.171875 L 173.453125 85.769531 L 207.6875 85.769531 L 207.695313 95.871094 L 223.675781 96.21875 L 223.769531 110.019531 L 237.320313 110.101563 L 237.496094 85.769531 L 222.144531 85.769531 L 222.203125 58.679688 L 237.523438 58.679688 L 237.453125 34.410156 L 224.089844 34.390625 L 223.503906 47.179688 L 207.5625 47.199219 L 207.535156 58.679688 L 173.660156 58.679688 L 173.460938 47.328125 L 157.683594 47.140625 L 157.183594 34.480469 L 143.5625 34.410156 Z M 143.390625 58.660156 "/>
<path style=" stroke:none;fill-rule:evenodd;fill:rgb(100%,100%,100%);fill-opacity:1;" d="M 571.109375 58.820313 L 586.753906 59.011719 L 586.695313 85.769531 L 571.335938 85.769531 L 571.15625 109.988281 L 584.871094 110.128906 L 585.214844 96.519531 L 600.996094 96.070313 L 601.195313 85.769531 L 635.503906 85.769531 L 635.464844 96.050781 L 651.441406 96.171875 L 651.496094 104.21875 L 651.539063 111.191406 L 665.289063 111.191406 L 665.449219 85.769531 L 649.816406 85.769531 L 649.914063 59.078125 L 665.472656 58.890625 L 665.410156 34.46875 L 651.648438 34.429688 L 651.523438 47.308594 L 635.679688 47.328125 L 635.296875 60.570313 L 601.503906 60.601563 L 601.105469 47.421875 L 585.09375 47.289063 L 585.152344 34.621094 L 571.496094 34.371094 Z M 571.109375 58.820313 "/>
<path style=" stroke:none;fill-rule:evenodd;fill:rgb(100%,100%,100%);fill-opacity:1;" d="M 105.765625 47.261719 L 88.441406 47.320313 L 88.007813 58.679688 L 71.554688 58.679688 L 71.433594 85.769531 L 87.660156 85.769531 L 88.265625 96.140625 L 105.726563 96.171875 L 105.824219 109.941406 L 120.597656 110.050781 L 120.652344 85.71875 L 104.101563 85.769531 L 104.132813 58.960938 L 120.660156 58.859375 L 120.628906 34.570313 L 106.078125 34.378906 Z M 105.765625 47.261719 "/>
<path style=" stroke:none;fill-rule:evenodd;fill:rgb(100%,100%,100%);fill-opacity:1;" d="M 533.984375 47.980469 L 516.394531 48.359375 L 516.429688 61.710938 L 500.449219 61.839844 L 500.433594 74.230469 L 500.421875 85.769531 L 516.4375 85.769531 L 516.441406 97.058594 L 534.148438 97.179688 L 534.136719 110.859375 L 548.890625 111.160156 L 548.898438 85.769531 L 532.527344 85.769531 L 532.578125 60.171875 L 548.90625 60.230469 L 548.941406 35.359375 L 534.105469 35.378906 Z M 533.984375 47.980469 "/>
<path style=" stroke:none;fill-rule:evenodd;fill:rgb(100%,100%,100%);fill-opacity:1;" d="M 389.726563 59.160156 L 379.828125 59.160156 L 379.835938 85.769531 L 389.351563 85.769531 L 389.699219 96.480469 L 416.109375 96.71875 L 416.101563 90.75 L 416.101563 85.769531 L 425.789063 85.769531 L 425.84375 59.230469 L 416.054688 58.941406 L 416.101563 48.28125 L 389.640625 48.339844 Z M 389.726563 59.160156 "/>
<path style=" stroke:none;fill-rule:evenodd;fill:rgb(100%,100%,100%);fill-opacity:1;" d="M 328.851563 58.789063 L 337.472656 59.050781 L 337.351563 94.609375 L 329.390625 94.628906 L 343.609375 109.988281 L 378.035156 109.988281 L 378.085938 103.03125 L 368.4375 103.011719 L 368.359375 94.871094 L 358.242188 94.691406 L 357.953125 85.769531 L 348.246094 85.769531 L 348.285156 58.679688 L 358.0625 58.679688 L 358.246094 49.75 L 368.390625 49.75 L 368.421875 41.421875 L 378.078125 41.328125 L 378.105469 34.410156 L 351.324219 34.378906 Z M 328.851563 58.789063 "/>
<path style=" stroke:none;fill-rule:evenodd;fill:rgb(0%,2.352905%,3.137207%);fill-opacity:1;" d="M 786.191406 85.769531 L 806.726563 85.769531 L 806.722656 61.191406 L 786.136719 61.269531 Z M 786.191406 85.769531 "/>
<path style="fill-rule:evenodd;fill:rgb(1.177979%,3.529358%,3.529358%);fill-opacity:1;stroke-width:5.669;stroke-linecap:butt;stroke-linejoin:miter;stroke:rgb(1.177979%,3.529358%,3.529358%);stroke-opacity:1;stroke-miterlimit:4;" d="M 6.953125 10744.3125 L 226.132813 10744.3125 L 226.132813 11008.570313 L 6.953125 11008.570313 Z M 6.953125 10744.3125 " transform="matrix(0.1,0,0,-0.1,0,1159.9)"/>
<path style=" stroke:none;fill-rule:evenodd;fill:rgb(100%,100%,100%);fill-opacity:1;" d="M 275.121094 47.261719 L 292.449219 47.320313 L 292.882813 58.679688 L 309.335938 58.679688 L 309.453125 85.769531 L 293.140625 85.769531 L 292.621094 96.140625 L 275.164063 96.171875 L 275.066406 109.941406 L 260.289063 110.050781 L 260.238281 85.71875 L 276.789063 85.769531 L 276.757813 58.960938 L 260.230469 58.859375 L 260.261719 34.570313 L 274.8125 34.378906 Z M 275.121094 47.261719 "/>
<path style=" stroke:none;fill-rule:evenodd;fill:rgb(100%,100%,100%);fill-opacity:1;" d="M 705.371094 48.109375 L 722.902344 48.109375 L 722.933594 61.710938 L 738.914063 61.839844 L 738.929688 74.230469 L 738.941406 85.769531 L 722.925781 85.769531 L 722.921875 97.058594 L 705.214844 97.179688 L 705.226563 111.191406 L 690.472656 111.191406 L 690.464844 85.769531 L 706.835938 85.769531 L 706.785156 60.171875 L 690.453125 60.230469 L 690.421875 35.359375 L 705.257813 35.378906 L 705.378906 48.109375 Z M 705.371094 48.109375 "/>
<path style=" stroke:none;fill-rule:evenodd;fill:rgb(100%,100%,100%);fill-opacity:1;" d="M 480.585938 58.789063 L 471.964844 59.050781 L 472.085938 94.609375 L 480.050781 94.628906 L 465.828125 109.988281 L 431.402344 109.988281 L 431.355469 103.03125 L 440.996094 103.011719 L 441.078125 94.871094 L 451.195313 94.691406 L 451.484375 85.769531 L 461.191406 85.769531 L 461.152344 58.679688 L 451.371094 58.679688 L 451.191406 49.75 L 441.050781 49.75 L 441.015625 41.421875 L 431.359375 41.328125 L 431.328125 34.410156 L 458.113281 34.378906 Z M 480.585938 58.789063 "/>
</g>
</svg>
