<?xml version="1.0" standalone="no"?>
<!DOCTYPE svg PUBLIC "-//W3C//DTD SVG 20010904//EN"
 "http://www.w3.org/TR/2001/REC-SVG-20010904/DTD/svg10.dtd">
<svg version="1.0" xmlns="http://www.w3.org/2000/svg"
 width="6821.000000pt" height="8199.000000pt" viewBox="0 0 6821.000000 8199.000000"
 preserveAspectRatio="xMidYMid meet">

<g transform="translate(0.000000,8199.000000) scale(0.100000,-0.100000)"
fill="#194b4d" stroke="none">
<path d="M45245 81979 c-2270 -61 -4697 -306 -7830 -790 -825 -128 -859 -134
-910 -163 -57 -34 -130 -116 -263 -301 -60 -82 -120 -155 -133 -162 -13 -7
-70 -26 -125 -43 -100 -30 -157 -60 -141 -77 12 -12 257 -8 422 6 77 7 345 32
595 56 250 25 536 52 634 60 199 17 451 23 463 11 13 -12 -21 -32 -117 -66
-89 -32 -113 -50 -67 -50 33 0 299 67 577 145 791 222 997 277 1386 369 1403
333 2886 547 4364 631 949 53 2010 53 2970 0 2181 -122 4429 -518 6302 -1111
404 -128 550 -182 908 -339 1888 -828 3578 -1828 5125 -3034 1776 -1383 3398
-3124 4902 -5261 372 -529 1022 -1514 1227 -1860 158 -266 328 -609 496 -1000
802 -1876 1300 -4450 1445 -7480 26 -543 35 -893 45 -1625 10 -775 10 -778 72
-953 16 -48 79 -194 139 -325 60 -130 109 -241 109 -247 0 -5 4 -12 10 -15 5
-3 26 27 46 67 20 40 68 128 106 196 103 183 164 316 189 416 l23 89 -12 499
c-59 2358 -272 4388 -663 6318 -632 3111 -1741 5880 -3247 8100 -1091 1610
-2418 2979 -3942 4072 -1458 1044 -3102 1855 -5135 2534 -2299 767 -4716 1195
-7415 1314 -672 29 -1849 38 -2555 19z"/>
<path d="M18360 76799 c-693 -24 -1378 -192 -1951 -479 -170 -86 -201 -139
-401 -695 -201 -558 -338 -851 -529 -1130 -210 -309 -562 -664 -894 -901 -237
-169 -420 -261 -845 -423 -173 -65 -612 -235 -975 -376 -1744 -679 -2616 -970
-3510 -1176 -121 -27 -290 -66 -375 -86 -1583 -363 -2909 -1213 -3874 -2483
-322 -424 -891 -1280 -1299 -1957 -2244 -3721 -3463 -7680 -3677 -11943 -43
-855 -41 -1821 5 -2795 304 -6400 1660 -13153 4227 -21060 518 -1598 1421
-4222 1520 -4420 126 -250 331 -439 687 -630 470 -253 1178 -540 1826 -741
972 -302 1790 -477 3840 -824 231 -39 688 -118 1015 -176 2132 -376 3933 -617
5720 -764 1342 -110 2338 -156 3640 -167 1805 -15 3556 78 4880 258 1000 136
1798 285 3870 724 1220 258 1800 372 2745 540 2426 431 4521 1265 6305 2508
192 134 605 445 785 592 451 367 660 559 1355 1250 734 729 958 937 1541 1437
711 609 1240 1138 1748 1748 1177 1413 2014 3091 2325 4660 193 978 202 1955
25 2860 -272 1388 -963 2575 -2003 3442 -221 184 -566 433 -945 683 -1483 976
-3100 1658 -4831 2039 -387 85 -443 95 -1860 326 -754 123 -3528 586 -5390
900 -916 154 -2300 386 -3077 515 -777 130 -1455 246 -1506 259 -301 77 -464
207 -552 440 -14 37 -52 185 -85 329 -77 333 -189 773 -380 1487 -385 1444
-508 2000 -639 2880 -226 1516 -322 2405 -362 3345 -15 350 -6 1184 15 1475
98 1318 360 2390 846 3455 442 967 646 1466 1332 3250 165 429 385 995 490
1259 104 263 225 585 268 715 151 456 246 901 292 1366 20 202 17 771 -5 975
-130 1185 -639 2265 -1566 3319 -621 705 -1309 1303 -2111 1836 -456 302 -779
489 -1280 739 -934 465 -1881 807 -3040 1096 -1463 366 -2183 497 -2830 515
-96 3 -204 7 -240 8 -36 2 -157 0 -270 -4z m5188 -8995 c42 -8 123 -34 179
-56 136 -54 436 -218 608 -332 276 -184 431 -324 687 -621 425 -494 741 -699
1243 -809 165 -37 264 -70 375 -127 607 -311 912 -1127 681 -1817 -58 -172
-394 -850 -1121 -2257 -213 -412 -406 -786 -429 -830 -34 -66 -40 -74 -36 -45
2 19 9 71 15 115 48 357 121 673 340 1480 277 1019 343 1375 370 2000 19 414
-3 584 -91 711 -107 156 -369 197 -782 123 -246 -44 -1047 -240 -1532 -374
-2672 -738 -5132 -1827 -7430 -3288 -1075 -684 -1999 -1364 -3100 -2281 -198
-165 -515 -423 -705 -575 -804 -641 -947 -756 -1170 -942 -405 -338 -708 -610
-997 -898 -73 -72 -130 -125 -128 -118 2 6 66 215 140 462 319 1052 479 1494
735 2022 259 535 477 861 1032 1544 530 653 1617 1863 2065 2299 695 678 1596
1216 2798 1672 314 120 618 224 1245 428 1405 458 2069 718 2735 1072 646 343
1146 704 1620 1168 83 81 168 160 190 177 132 100 288 133 463 97z m1800
-3005 c78 -38 153 -120 181 -194 26 -68 28 -180 6 -274 -24 -100 -184 -574
-289 -854 -346 -921 -809 -1884 -1411 -2932 -370 -644 -1145 -1904 -1892
-3075 -1913 -2999 -4018 -6062 -7334 -10670 -1859 -2583 -2157 -2988 -3430
-4671 -170 -224 -333 -445 -362 -490 -109 -168 -175 -329 -196 -478 -5 -40
-12 -75 -14 -77 -7 -7 -231 121 -352 201 -261 173 -449 328 -700 580 -416 415
-710 825 -985 1370 -326 648 -500 1289 -526 1944 -13 336 17 568 337 2550 386
2399 511 3280 619 4371 84 845 261 1479 611 2180 471 943 1140 1757 2309 2811
3050 2749 5981 4721 9062 6095 708 316 1252 532 2878 1144 862 324 944 356
1110 431 119 54 169 67 251 68 54 1 76 -4 127 -30z m323 -4215 c-301 -1784
-336 -3714 -110 -5989 43 -437 96 -890 130 -1125 135 -918 414 -1888 877
-3045 174 -435 307 -749 702 -1650 147 -335 322 -740 390 -899 136 -318 181
-396 286 -497 161 -153 294 -216 609 -290 523 -123 927 -245 2105 -639 525
-175 1051 -348 1167 -384 635 -196 1125 -321 1643 -416 408 -75 744 -153 1106
-255 1630 -460 3217 -1278 5054 -2604 538 -388 686 -508 831 -674 197 -226
316 -454 370 -709 30 -139 32 -388 6 -530 -18 -93 -20 -97 -50 -108 -18 -6
-68 -14 -112 -17 -66 -4 -90 -1 -135 16 -130 49 -176 107 -338 423 -300 586
-595 994 -1041 1438 -285 284 -511 470 -833 686 -895 601 -2040 1021 -3593
1319 -1431 274 -3075 471 -4550 545 -1018 51 -2201 52 -3185 5 -2935 -142
-5796 -663 -8680 -1581 -501 -159 -1407 -467 -1620 -551 -323 -127 -609 -301
-805 -488 l-70 -66 265 5 c280 4 400 17 642 70 248 54 426 111 938 301 1095
407 2048 701 3125 965 1951 479 3988 760 6235 860 1081 48 2426 46 3650 -5
990 -42 2267 -132 2780 -196 2596 -322 4784 -1595 6573 -3823 194 -243 324
-416 370 -493 236 -404 160 -909 -210 -1406 -152 -204 -453 -480 -713 -654
-820 -549 -1862 -1034 -3200 -1491 -627 -214 -2511 -826 -5945 -1932 -2830
-911 -3980 -1284 -5611 -1820 -1759 -579 -2263 -764 -4539 -1665 -2552 -1011
-3438 -1326 -5075 -1804 -1407 -410 -3146 -884 -3932 -1070 -470 -112 -834
-156 -1283 -155 -490 1 -879 60 -1308 200 -464 152 -788 329 -988 542 -91 97
-132 173 -137 257 -5 77 12 113 98 210 268 302 301 559 125 961 -91 207 -133
315 -150 383 -14 53 -17 140 -19 560 -4 622 -16 783 -136 1831 -118 1025 -135
1249 -135 1815 0 460 10 620 55 915 53 347 189 609 455 875 249 249 544 446
1495 997 4797 2780 9667 4503 14755 5222 1929 273 3589 339 5235 211 1154 -90
2271 -277 3355 -561 568 -149 787 -237 1580 -638 710 -359 938 -463 1260 -572
172 -59 344 -108 351 -101 2 2 -34 55 -82 118 -368 484 -813 879 -1364 1210
-1113 668 -2794 1098 -4860 1243 -1214 86 -2474 93 -3645 21 -3160 -195 -6430
-930 -10188 -2289 -420 -152 -769 -283 -1029 -387 -109 -44 -257 -100 -330
-125 -124 -42 -736 -200 -744 -191 -2 2 233 235 522 517 289 283 521 516 516
518 -5 1 -92 -33 -193 -77 -1050 -453 -2074 -1069 -3374 -2029 -291 -214 -677
-510 -1375 -1052 -816 -633 -924 -716 -1305 -1001 -356 -266 -865 -633 -870
-627 -4 4 -32 448 -47 733 -16 313 -16 1441 0 1785 35 740 76 1295 153 2065
31 315 105 987 117 1067 l7 46 125 -96 c152 -118 489 -451 620 -612 127 -156
204 -259 440 -586 256 -353 364 -487 520 -648 191 -196 344 -300 501 -341 79
-21 213 -16 279 11 151 60 291 203 412 422 28 50 50 73 114 118 362 260 702
595 1069 1054 166 208 225 286 525 700 348 479 406 554 885 1155 2609 3269
5062 6595 7619 10330 158 231 303 433 322 448 19 16 115 89 213 162 l179 133
-23 -52 c-44 -99 -257 -520 -368 -726 -341 -634 -683 -1193 -1450 -2370 -786
-1206 -1077 -1684 -1418 -2331 -130 -247 -323 -648 -315 -656 7 -7 186 80 281
137 191 116 393 285 554 464 138 154 248 295 492 631 115 159 287 394 381 520
1346 1815 2738 4025 3976 6310 550 1017 1391 2675 1604 3165 122 279 197 405
306 513 61 61 162 139 170 132 2 -2 -15 -110 -37 -241z"/>
<path d="M20198 62370 c-9 -14 -78 -126 -153 -250 -1158 -1896 -2616 -4036
-4330 -6355 -1009 -1365 -1888 -2515 -4010 -5245 -1812 -2331 -3095 -4000
-3112 -4048 -8 -21 -19 -31 252 214 359 324 554 511 1071 1028 980 980 1849
1930 2919 3191 3508 4134 6687 8822 7278 10735 97 312 138 589 108 725 l-7 30
-16 -25z"/>
<path d="M37490 41674 c-324 -277 -556 -508 -1095 -1089 -692 -746 -1067
-1071 -1560 -1352 -528 -302 -1846 -983 -2500 -1293 -1609 -761 -2912 -1273
-4405 -1729 -368 -112 -578 -184 -772 -262 -522 -212 -914 -459 -1246 -786
-89 -88 -130 -122 -142 -118 -121 39 -371 55 -540 36 -135 -16 -286 -48 -595
-126 -414 -105 -1766 -415 -2750 -630 -3079 -673 -5625 -1118 -8095 -1414
-1567 -188 -3039 -303 -4625 -361 -279 -10 -364 -23 -480 -75 -77 -34 -171
-102 -231 -167 -53 -58 -130 -166 -123 -172 4 -4 245 -18 639 -38 333 -17
1949 -17 2320 0 1837 84 3111 218 6344 667 1728 240 2003 276 1961 256 -107
-49 -1331 -501 -1915 -706 -391 -138 -1405 -475 -1800 -599 -1376 -430 -2751
-799 -3994 -1072 -138 -30 -252 -57 -254 -58 -13 -13 345 -17 628 -8 624 22
1065 76 1715 211 1576 327 3185 802 5240 1548 574 208 1304 483 2295 863 1642
630 2175 832 2860 1081 482 176 602 236 1065 529 348 221 354 224 405 222 25
-1 106 -9 180 -18 88 -11 177 -14 255 -11 119 5 124 6 640 155 1503 435 2602
795 3617 1186 2399 924 4299 2030 5846 3404 203 180 474 436 589 557 398 415
598 795 658 1253 16 121 20 232 8 232 -5 0 -69 -52 -143 -116z"/>
<path d="M41890 75113 c-2422 -51 -4970 -340 -8231 -933 -809 -147 -1073 -199
-1119 -221 -75 -35 -142 -94 -278 -243 l-131 -143 177 -88 c229 -113 288 -135
392 -145 274 -26 856 117 2400 587 747 227 803 238 1185 237 195 0 337 -7 570
-27 1040 -90 1870 -100 2785 -31 419 31 679 60 1840 209 789 101 1241 133
1975 142 1046 12 2023 -60 3140 -233 1132 -175 2408 -483 3286 -793 1445 -510
2853 -1255 4224 -2234 383 -274 574 -424 670 -526 49 -53 196 -206 325 -341
742 -773 1184 -1260 1671 -1845 1398 -1679 2488 -3424 3254 -5210 476 -1109
879 -2331 1219 -3690 482 -1930 830 -4210 947 -6207 l11 -188 -45 -57 c-77
-100 -187 -274 -237 -373 -85 -170 -103 -281 -55 -339 39 -45 80 -54 219 -48
110 5 314 42 332 60 16 16 25 1191 15 1842 -21 1307 -73 2256 -181 3335 -283
2807 -911 5375 -1843 7535 -1663 3852 -4343 6565 -8053 8154 -1423 609 -3186
1117 -4924 1420 -1563 272 -3217 406 -4930 399 -272 -1 -547 -3 -610 -5z"/>
<path d="M38015 68139 c-1229 -45 -2576 -180 -4040 -405 -159 -24 -315 -49
-345 -55 -156 -30 -346 -113 -570 -250 -265 -162 -442 -268 -453 -272 -29 -10
15 -18 263 -46 977 -111 1918 -155 2830 -132 480 12 743 23 1495 66 1417 80
2072 70 2955 -46 671 -87 983 -158 2795 -635 2637 -695 3964 -1184 5185 -1912
703 -420 1447 -1023 1840 -1492 616 -736 1148 -1747 2220 -4215 920 -2119
1215 -2847 1424 -3524 244 -787 366 -1526 367 -2221 0 -340 -14 -464 -106
-965 -153 -833 -184 -1229 -190 -2425 -5 -861 -17 -1094 -76 -1445 -117 -698
-334 -1207 -770 -1806 -43 -61 -79 -112 -79 -115 0 -14 27 16 94 104 120 160
320 471 481 752 1043 1816 1461 4021 1244 6570 -120 1421 -454 2967 -945 4377
-328 943 -619 1646 -985 2373 -1042 2076 -2475 3750 -4363 5099 -1233 881
-2571 1531 -3986 1936 -419 121 -1041 266 -1510 354 -977 184 -1941 289 -3025
331 -299 11 -1424 11 -1750 -1z"/>
<path d="M49585 17989 c-344 -13 -614 -33 -1440 -104 -628 -54 -859 -71 -1275
-90 -178 -9 -375 -22 -438 -31 -434 -56 -775 -179 -1099 -393 -185 -123 -265
-220 -294 -361 -9 -42 -9 -201 0 -655 6 -330 16 -861 21 -1180 48 -2815 67
-3310 215 -5535 36 -531 68 -1020 71 -1087 6 -109 9 -123 25 -123 81 0 6104
-261 6108 -265 5 -5 -217 -4367 -223 -4372 -2 -2 -638 52 -1412 122 -775 69
-1412 125 -1416 125 -5 0 -8 585 -8 1300 0 1028 -3 1300 -12 1300 -13 0 -3259
257 -3315 263 l-32 3 -11 -66 c-6 -36 -36 -198 -66 -360 -165 -876 -177 -967
-214 -1560 -45 -734 -57 -1380 -31 -1755 42 -616 125 -1068 287 -1554 117
-351 159 -408 429 -568 842 -500 1638 -797 2485 -927 283 -43 463 -57 850 -66
206 -5 470 -17 585 -26 174 -13 346 -16 1010 -15 845 1 1141 10 1450 41 599
61 1000 178 1722 501 136 61 374 167 528 235 154 68 300 134 325 146 56 28
170 141 193 189 11 23 39 216 82 555 37 285 90 710 120 944 122 963 181 1586
216 2270 17 337 23 1691 10 2270 -11 488 -39 1591 -60 2315 -9 293 -13 342
-35 438 -13 60 -26 110 -28 112 -4 4 -6149 425 -6200 425 -21 0 -29 6 -32 23
-5 25 -127 1593 -156 2007 -44 627 -69 1192 -58 1289 20 170 134 423 240 530
57 58 72 63 211 77 294 29 604 37 1240 29 l627 -7 0 -1089 0 -1089 54 0 c29 0
946 -36 2036 -80 1091 -44 1985 -78 1988 -76 2 2 10 64 18 138 9 91 17 376 24
913 19 1496 30 1931 66 2505 19 302 12 450 -30 625 -66 272 -209 538 -433 805
-146 174 -369 391 -439 428 -182 94 -1107 297 -1764 386 -830 113 -1832 159
-2715 125z"/>
<path d="M21725 17894 c-627 -51 -1136 -337 -1581 -889 -118 -147 -438 -572
-530 -705 -251 -361 -388 -644 -428 -885 -21 -127 -58 -897 -116 -2415 -69
-1808 -113 -2698 -220 -4445 -77 -1240 -96 -1432 -215 -2130 -120 -702 -140
-889 -140 -1315 0 -531 11 -586 361 -1850 233 -838 333 -1224 419 -1619 81
-367 119 -457 244 -582 137 -136 172 -149 896 -339 88 -23 323 -91 523 -151
477 -144 673 -199 864 -243 206 -48 471 -92 633 -105 72 -6 519 -13 995 -15
1076 -6 1613 -24 2408 -81 639 -46 1069 -29 1608 65 607 106 1267 306 2149
653 l110 43 0 1954 c-1 1990 -3 2174 -41 2715 -28 413 -48 574 -78 638 -39 81
-110 172 -172 219 -42 32 -67 42 -116 50 -35 5 -542 12 -1128 15 l-1066 5 -32
-578 c-18 -319 -49 -860 -68 -1204 -37 -682 -42 -721 -109 -866 -120 -261
-350 -436 -640 -485 -108 -18 -539 -3 -2239 81 -445 22 -830 40 -856 40 l-47
0 -12 133 c-6 72 -41 393 -76 712 -128 1156 -150 1540 -126 2210 23 662 53
1114 156 2375 91 1109 112 1421 170 2520 20 366 44 802 55 969 12 185 20 413
20 585 0 406 20 568 88 702 69 136 201 214 420 250 82 13 253 16 1132 20 569
3 1315 2 1658 -2 l622 -7 0 -2433 c0 -1941 3 -2434 13 -2434 6 0 567 27 1245
60 679 33 1239 60 1245 60 7 0 8 1156 3 3913 -7 3884 -7 3912 -27 3973 -30 92
-67 127 -169 160 -47 14 -247 85 -445 157 -811 292 -1113 371 -1520 396 -653
41 -1389 56 -3415 72 -696 5 -1416 14 -1600 19 -491 14 -768 18 -825 14z"/>
<path d="M5850 17823 c0 -4 -9 -91 -20 -193 -29 -275 -106 -1130 -135 -1495
-130 -1661 -199 -3185 -246 -5430 -17 -799 -22 -3961 -10 -5475 6 -762 14
-2183 18 -3158 l6 -1772 141 0 c78 0 2461 -29 5296 -65 2835 -36 5176 -65
5203 -65 l47 0 0 1825 c0 1471 -2 1825 -13 1825 -14 0 -4553 176 -5547 215
-349 14 -658 25 -687 25 l-53 0 0 1845 0 1845 2315 0 2315 0 -6 53 c-3 28 -56
534 -118 1122 l-111 1070 -2423 3 -2422 2 0 1515 0 1515 3210 0 3210 0 0 2320
0 2320 -27 0 c-16 0 -2024 31 -4463 70 -2439 38 -4626 72 -4860 75 -234 3
-469 8 -522 11 -54 3 -98 1 -98 -3z"/>
<path d="M36980 17760 c-457 -13 -813 -37 -1825 -125 -632 -55 -1025 -85
-1360 -105 -271 -16 -415 -40 -565 -92 -273 -95 -440 -278 -516 -564 -30 -115
-33 -121 -86 -192 -22 -30 -86 -145 -142 -255 -57 -111 -146 -286 -200 -389
-150 -289 -212 -458 -235 -643 -25 -204 -36 -1398 -35 -3937 l2 -2568 -90 0
-90 0 7 -1982 c5 -1508 4 -2189 -6 -2843 -18 -1098 -18 -1441 -1 -1570 36
-269 105 -505 211 -722 124 -251 253 -425 511 -683 225 -226 424 -364 640
-443 175 -65 258 -75 820 -97 550 -22 1197 -76 1985 -164 1061 -120 1913 -164
2935 -153 698 8 1137 28 1820 83 554 44 1168 112 1259 139 345 104 862 491
997 748 34 65 38 85 104 500 126 797 146 998 160 1592 31 1306 100 5297 130
7430 39 2818 53 4328 40 4447 -21 197 -55 350 -160 718 -77 269 -114 419 -140
562 -36 204 -77 300 -172 404 -122 133 -288 209 -780 358 -1020 308 -2145 468
-3703 526 -295 11 -1155 31 -1215 28 -19 -1 -154 -5 -300 -8z m495 -4700 c757
-15 1180 -29 1265 -41 221 -31 350 -87 460 -198 116 -116 167 -241 190 -462 6
-66 10 -781 10 -2055 l0 -1954 -59 0 -59 0 -6 -122 c-14 -270 -98 -2734 -116
-3393 -18 -703 -19 -716 -74 -809 -60 -103 -204 -191 -451 -276 -344 -118
-637 -166 -1075 -177 -272 -6 -471 3 -1050 47 -212 17 -461 33 -555 36 -151 5
-176 9 -220 30 -97 45 -228 208 -239 298 -19 143 -50 6554 -37 7636 l8 705 26
86 c37 122 76 217 174 426 82 174 88 183 127 203 23 10 66 24 96 29 60 11 732
7 1585 -9z"/>
</g>
</svg>
