<?xml version="1.0" standalone="no"?>
<!DOCTYPE svg PUBLIC "-//W3C//DTD SVG 20010904//EN"
 "http://www.w3.org/TR/2001/REC-SVG-20010904/DTD/svg10.dtd">
<svg version="1.0" xmlns="http://www.w3.org/2000/svg"
 width="1776.000000pt" height="508.000000pt" viewBox="0 0 1776.000000 508.000000"
 preserveAspectRatio="xMidYMid meet">

<g transform="translate(0.000000,508.000000) scale(0.100000,-0.100000)"
fill="#ffb454" stroke="none">
<path d="M15690 5019 c-119 -9 -480 -56 -506 -66 -8 -3 -19 -14 -25 -25 -10
-19 -8 -20 68 -13 43 3 134 19 203 35 301 70 614 73 920 9 200 -42 356 -110
554 -242 267 -178 562 -531 651 -778 59 -166 95 -399 95 -614 0 -98 12 -165
31 -165 17 0 22 56 16 204 -16 396 -124 760 -305 1030 -313 467 -905 684
-1702 625z"/>
<path d="M13683 4611 c-52 -9 -123 -41 -123 -55 0 -28 -62 -135 -97 -169 -52
-50 -246 -128 -463 -187 -191 -52 -267 -107 -381 -277 -171 -257 -287 -560
-330 -863 -17 -119 -17 -434 -1 -600 48 -485 154 -960 338 -1518 104 -317 109
-328 157 -357 130 -75 565 -163 1002 -201 204 -18 519 -15 665 6 143 21 667
130 738 154 94 32 222 98 300 153 83 59 400 360 453 430 205 273 223 600 42
794 -127 136 -366 244 -623 283 -293 44 -828 139 -844 150 -14 9 -30 54 -57
157 -67 252 -95 489 -78 655 11 111 25 152 153 472 95 234 111 304 95 404 -27
164 -171 331 -379 437 -182 93 -443 154 -567 132z m505 -730 c20 -11 57 -40
82 -65 29 -30 59 -50 85 -57 51 -14 83 -43 95 -90 11 -41 1 -79 -45 -164 -15
-27 -38 -72 -52 -98 -13 -27 -27 -47 -29 -44 -3 2 6 49 19 103 31 125 39 178
31 209 -5 21 -12 25 -43 25 -52 0 -261 -61 -394 -115 -220 -90 -389 -196 -650
-409 -97 -80 -177 -142 -177 -137 0 17 49 150 73 198 33 64 151 206 243 293
81 76 150 112 335 176 155 53 252 101 312 155 48 44 63 46 115 20z m119 -236
c14 -38 -84 -246 -218 -462 -202 -326 -568 -855 -871 -1260 -54 -72 -98 -137
-98 -144 0 -18 73 54 118 116 20 28 85 111 143 186 144 183 313 412 443 599
110 158 146 203 154 195 6 -6 -56 -117 -133 -235 -67 -102 -135 -221 -135
-233 0 -20 49 28 105 103 144 193 262 386 392 640 104 202 117 218 106 135 -4
-33 -8 -150 -7 -260 1 -280 16 -354 131 -624 39 -91 64 -136 78 -142 45 -18
386 -119 465 -137 107 -25 216 -70 317 -131 169 -101 233 -163 233 -223 0 -49
-34 -35 -70 26 -36 64 -124 147 -189 181 -66 33 -166 61 -311 87 -111 20 -158
22 -415 22 -306 0 -380 -7 -619 -64 -129 -31 -340 -101 -367 -121 l-24 -19 22
0 c13 0 85 20 160 45 166 55 269 80 433 106 256 40 706 35 885 -11 157 -40
295 -130 412 -268 46 -53 53 -68 53 -104 0 -37 -6 -47 -48 -87 -89 -85 -130
-101 -990 -381 -205 -66 -469 -158 -585 -204 -262 -103 -405 -150 -646 -211
-132 -34 -228 -35 -300 -4 -63 27 -78 49 -56 83 13 19 14 32 6 67 -17 74 -43
376 -35 416 11 64 32 92 102 137 176 114 450 242 687 321 316 106 551 148 830
149 246 1 367 -21 528 -96 59 -27 110 -48 113 -46 9 9 -84 87 -133 111 -197
100 -617 116 -993 37 -119 -25 -343 -91 -475 -140 -55 -20 -113 -40 -130 -44
l-30 -7 35 37 c44 46 24 41 -83 -24 -74 -44 -139 -91 -333 -240 -45 -34 -87
-62 -93 -62 -21 0 -8 417 14 439 7 6 52 -40 118 -122 40 -50 73 -60 97 -32 11
13 9 18 -11 32 -51 35 -113 109 -141 170 -41 86 -45 157 -20 308 11 66 30 190
42 275 11 85 23 169 25 185 8 51 70 167 120 225 150 173 478 419 727 544 129
64 401 174 436 175 12 1 25 -6 29 -14z"/>
<path d="M13859 3428 c-26 -49 -217 -330 -321 -470 -95 -131 -494 -652 -537
-702 -15 -18 -15 -18 5 -8 26 14 243 250 350 382 238 292 455 617 509 763 19
50 15 75 -6 35z"/>
<path d="M15165 1720 c-82 -83 -102 -97 -225 -159 -161 -82 -290 -137 -425
-180 -98 -32 -175 -72 -175 -91 0 -14 12 -13 78 6 333 92 625 240 775 391 49
51 90 123 69 123 -4 0 -48 -41 -97 -90z"/>
<path d="M14255 1280 c-351 -91 -825 -170 -1130 -190 -118 -7 -163 -14 -174
-25 -33 -33 356 -14 694 35 166 23 195 24 140 3 -119 -45 -316 -108 -430 -138
-135 -35 -130 -45 11 -21 149 26 293 72 639 203 246 93 305 120 305 135 0 9
-14 9 -55 -2z"/>
<path d="M15360 4466 c-247 -26 -493 -71 -512 -93 -31 -38 51 -35 187 6 96 29
105 30 230 24 97 -4 164 -1 263 12 463 62 910 -73 1173 -353 310 -330 453
-657 515 -1171 15 -133 15 -146 0 -177 -20 -44 -20 -44 5 -44 22 0 22 0 16
218 -6 240 -26 390 -78 577 -107 389 -333 682 -648 840 -127 63 -344 128 -521
155 -117 17 -486 21 -630 6z"/>
<path d="M10520 4344 c-19 -2 -156 -13 -305 -24 -503 -38 -534 -44 -642 -115
-93 -62 -87 -6 -74 -668 7 -320 18 -688 26 -817 32 -529 37 -596 41 -616 4
-21 11 -22 146 -28 79 -4 348 -15 598 -26 250 -11 512 -23 582 -26 l128 -7 -5
-51 c-5 -51 -15 -259 -35 -691 -6 -126 -13 -245 -16 -264 l-5 -33 -57 5 c-31
3 -172 16 -312 27 -140 12 -265 24 -277 26 l-23 4 0 305 0 305 -22 4 c-13 3
-57 7 -98 10 -41 4 -192 15 -335 26 -143 11 -278 21 -299 22 l-39 3 -28 -145
c-54 -282 -64 -754 -20 -958 31 -148 58 -217 95 -250 52 -45 263 -149 393
-192 201 -66 239 -70 764 -70 459 0 468 0 560 24 52 13 135 41 184 63 50 22
130 57 178 78 138 61 127 35 170 387 59 481 61 520 59 953 -1 379 -14 841 -23
848 -2 2 -148 14 -324 26 -176 12 -383 26 -460 32 -77 5 -263 19 -414 29 -150
11 -275 21 -277 23 -6 6 -43 464 -50 628 -8 174 4 235 52 280 24 22 30 23 259
27 l235 5 0 -261 0 -260 113 -6 c276 -14 842 -34 847 -30 7 8 18 336 22 689
l3 310 -34 68 c-38 76 -145 198 -188 215 -78 31 -293 74 -488 97 -120 15 -525
27 -605 19z"/>
<path d="M3900 4313 c-76 -15 -173 -69 -242 -137 -85 -82 -239 -300 -271 -382
-17 -45 -26 -195 -52 -854 -8 -212 -17 -414 -20 -450 -3 -36 -10 -146 -15
-245 -18 -324 -30 -454 -61 -653 -26 -169 -30 -216 -26 -332 4 -130 7 -144 76
-395 40 -143 84 -309 97 -370 27 -116 52 -163 102 -189 15 -7 86 -30 157 -49
72 -20 177 -50 235 -67 160 -47 262 -57 660 -66 568 -13 731 -11 825 10 105
24 287 79 403 123 l92 36 0 480 c0 542 -11 744 -42 795 -11 17 -32 35 -46 39
-15 4 -139 8 -277 8 l-250 0 -3 -65 c-1 -36 -9 -169 -16 -296 -16 -256 -24
-289 -88 -337 -64 -48 -86 -50 -433 -33 -176 9 -339 16 -362 16 -50 0 -42 -26
-73 260 -14 131 -20 261 -20 397 0 182 6 291 40 693 17 200 40 607 49 837 8
228 12 243 68 280 25 16 66 18 445 21 l418 3 0 -581 0 -582 88 7 c105 7 448
25 480 25 l22 0 0 939 c0 759 -2 941 -13 949 -14 12 -196 79 -302 113 -34 10
-92 23 -130 29 -103 16 -1445 36 -1515 23z"/>
<path d="M215 4296 c-2 -6 -13 -119 -24 -251 -67 -783 -84 -1441 -74 -2887 l6
-1008 221 0 c335 0 1735 -18 2039 -26 l267 -7 0 437 0 436 -87 0 c-49 0 -299
9 -558 19 -259 11 -554 23 -657 26 l-188 7 0 439 0 439 545 0 545 0 0 30 c0
16 -9 112 -20 212 -11 101 -23 207 -26 236 l-5 52 -575 0 -574 0 0 360 0 360
760 0 760 0 0 548 0 549 -307 6 c-170 4 -670 11 -1113 17 -443 6 -834 12 -869
13 -38 2 -64 -1 -66 -7z"/>
<path d="M7305 4275 c-82 -8 -240 -21 -350 -29 -110 -9 -223 -23 -252 -31 -57
-17 -101 -59 -122 -116 -7 -18 -17 -41 -21 -49 -53 -91 -123 -241 -135 -287
-13 -48 -15 -176 -15 -815 0 -751 0 -758 -20 -758 -20 0 -20 -7 -22 -672 -4
-859 -4 -864 17 -934 43 -149 198 -322 316 -352 24 -6 125 -16 224 -22 99 -6
290 -22 425 -37 226 -25 276 -27 650 -27 344 0 433 3 591 21 152 17 195 26
236 46 65 34 150 101 172 138 18 30 54 233 66 369 11 128 42 1979 46 2760 l2
235 -46 168 c-49 185 -61 206 -137 239 -127 55 -415 117 -670 143 -216 23
-756 28 -955 10z m632 -1104 c128 -9 169 -28 199 -89 18 -34 19 -73 22 -529 3
-421 1 -493 -11 -493 -19 0 -24 -68 -37 -535 -6 -209 -13 -404 -16 -433 -7
-68 -32 -92 -138 -128 -76 -27 -92 -28 -266 -30 -102 -1 -236 3 -298 10 -170
17 -157 -14 -165 396 -4 183 -7 632 -7 997 l0 665 31 76 c16 42 35 82 41 89
12 15 453 18 645 4z"/>
<path d="M15150 3914 c-14 -2 -65 -9 -115 -15 -92 -11 -169 -39 -146 -53 6 -4
142 -7 301 -7 l289 1 158 -40 c313 -80 458 -141 567 -241 83 -76 124 -146 227
-380 139 -318 158 -397 134 -559 -8 -52 -16 -146 -17 -209 l-3 -114 17 41 c43
97 53 162 53 337 0 184 -9 241 -67 425 -144 457 -481 747 -941 809 -72 10
-398 13 -457 5z"/>
</g>
</svg>
