<?xml version="1.0" standalone="no"?>
<!DOCTYPE svg PUBLIC "-//W3C//DTD SVG 20010904//EN"
 "http://www.w3.org/TR/2001/REC-SVG-20010904/DTD/svg10.dtd">
<svg version="1.0" xmlns="http://www.w3.org/2000/svg"
 width="1568.000000pt" height="486.000000pt" viewBox="0 0 1568.000000 486.000000"
 preserveAspectRatio="xMidYMid meet">

<g transform="translate(0.000000,486.000000) scale(0.100000,-0.100000)"
fill="white" stroke="none">
<path d="M9870 4319 c-322 -41 -636 -165 -903 -356 -113 -81 -315 -279 -402
-394 -182 -241 -299 -498 -361 -792 -32 -150 -44 -456 -24 -614 75 -616 433
-1155 970 -1462 359 -206 796 -291 1212 -236 657 87 1219 498 1504 1100 411
871 117 1916 -691 2448 -241 159 -525 264 -811 302 -123 16 -384 18 -494 4z
m516 -64 c277 -42 537 -144 775 -303 385 -259 662 -654 779 -1114 65 -254 67
-629 4 -883 -94 -377 -295 -714 -579 -968 -567 -506 -1372 -625 -2059 -303
-265 124 -533 343 -707 578 -569 768 -483 1821 203 2484 311 301 707 482 1146
524 107 10 315 3 438 -15z"/>
<path d="M9920 4104 c-327 -41 -622 -162 -875 -359 -282 -220 -502 -543 -599
-878 -53 -183 -61 -246 -61 -492 0 -202 3 -243 23 -335 131 -595 520 -1062
1067 -1278 778 -308 1670 -11 2113 703 358 579 344 1316 -36 1880 -257 382
-653 644 -1108 736 -85 17 -151 22 -299 24 -104 2 -206 1 -225 -1z m355 -84
c652 -73 1197 -506 1401 -1115 67 -201 78 -274 78 -525 0 -196 -3 -238 -22
-327 -73 -336 -216 -597 -457 -839 -322 -324 -714 -487 -1165 -486 -354 0
-667 101 -965 311 -107 75 -295 264 -378 381 -121 171 -232 423 -271 615 -109
549 44 1084 423 1478 287 298 622 460 1056 511 66 7 215 5 300 -4z"/>
<path d="M9925 3863 c-570 -74 -1050 -467 -1230 -1006 -61 -183 -70 -248 -70
-482 1 -191 3 -220 27 -321 148 -625 656 -1081 1289 -1155 197 -23 448 4 639
67 41 14 129 52 195 85 416 206 703 586 797 1054 31 154 31 414 0 561 -134
628 -621 1095 -1242 1189 -86 14 -328 18 -405 8z m460 -131 c254 -55 477 -172
664 -348 429 -404 554 -1017 319 -1558 -175 -401 -550 -704 -988 -797 -141
-30 -381 -32 -520 -5 -583 114 -1031 577 -1116 1156 -30 207 -9 446 56 640
137 408 478 745 885 873 71 22 185 48 270 61 71 11 342 -3 430 -22z"/>
<path d="M9950 3643 c-420 -64 -765 -307 -953 -670 -96 -185 -137 -360 -137
-579 0 -338 117 -627 352 -870 176 -182 370 -292 623 -355 116 -29 349 -36
480 -15 404 67 761 337 934 707 76 163 109 295 118 480 13 270 -61 531 -217
765 -66 98 -231 264 -327 327 -158 105 -331 174 -506 202 -83 13 -302 18 -367
8z m345 -175 c413 -63 764 -390 876 -815 27 -101 36 -301 19 -414 -22 -155
-88 -323 -183 -464 -60 -90 -220 -241 -321 -304 -273 -169 -636 -210 -929
-104 -588 211 -882 856 -655 1433 137 348 472 615 838 669 139 21 215 21 355
-1z"/>
<path d="M9941 3359 c-29 -5 -92 -22 -140 -38 -315 -107 -549 -358 -637 -686
-15 -56 -19 -105 -19 -240 0 -200 15 -266 95 -430 179 -366 570 -581 977 -537
572 63 968 609 848 1172 -81 381 -380 674 -768 754 -83 17 -266 20 -356 5z
m354 -233 c86 -23 230 -97 300 -155 118 -98 205 -239 246 -401 18 -71 21 -103
16 -205 -6 -133 -20 -192 -75 -302 -179 -363 -632 -519 -993 -343 -153 74
-278 198 -349 345 -51 104 -70 178 -77 295 -22 369 234 695 607 776 80 17 241
12 325 -10z"/>
<path d="M9962 2934 c-87 -23 -162 -65 -231 -129 -124 -115 -181 -244 -181
-407 0 -164 50 -288 161 -399 170 -171 423 -214 639 -108 308 152 409 530 218
815 -75 112 -192 195 -325 229 -71 19 -211 18 -281 -1z"/>
<path d="M13450 4303 c-85 -9 -258 -46 -341 -73 -377 -123 -624 -357 -700
-659 -18 -71 -20 -104 -16 -205 5 -136 22 -208 73 -315 122 -259 338 -439 919
-766 407 -229 541 -320 681 -459 146 -147 212 -281 221 -451 9 -161 -37 -286
-148 -396 -143 -144 -393 -221 -661 -205 -185 11 -343 61 -481 153 -195 130
-354 335 -561 726 -31 59 -60 107 -64 107 -28 0 -82 -24 -102 -45 -23 -24 -23
-26 -17 -217 8 -275 53 -528 104 -589 35 -41 147 -113 265 -168 277 -132 588
-190 953 -178 432 14 742 125 966 347 107 106 162 190 206 315 25 74 27 92 27
230 1 161 -9 214 -61 343 -48 121 -110 211 -232 333 -169 169 -323 272 -756
504 -485 260 -658 386 -778 568 -64 97 -89 176 -95 303 -7 174 32 281 147 395
197 195 513 253 780 141 111 -47 208 -117 332 -241 101 -102 160 -175 361
-448 45 -62 66 -66 109 -24 28 28 29 33 29 125 0 181 -45 443 -96 556 -22 50
-35 63 -105 110 -198 130 -445 191 -760 188 -90 0 -180 -3 -199 -5z"/>
<path d="M6150 4274 c-559 -87 -1021 -423 -1302 -944 -308 -571 -319 -1360
-26 -1900 69 -127 157 -248 261 -356 287 -301 663 -478 1116 -525 158 -16 432
-6 591 21 242 42 506 136 688 245 115 69 149 99 181 164 54 106 130 372 161
559 21 126 -6 193 -92 236 -77 39 -90 36 -112 -26 -51 -147 -174 -356 -303
-515 -236 -293 -511 -458 -783 -471 -191 -9 -375 30 -555 117 -346 167 -597
518 -720 1006 -55 219 -69 340 -69 615 -1 275 9 367 59 565 130 511 418 844
840 972 84 25 102 27 275 27 210 0 270 -12 432 -83 267 -118 570 -410 758
-730 l44 -73 43 5 c120 13 148 98 104 314 -24 115 -83 306 -118 380 -74 158
-402 314 -808 384 -161 28 -525 35 -665 13z"/>
<path d="M900 4221 c-5 -11 -10 -35 -10 -55 0 -48 28 -66 103 -66 139 0 271
-55 331 -138 70 -95 66 -7 66 -1548 0 -1533 4 -1443 -63 -1539 -60 -88 -192
-144 -337 -145 -73 0 -100 -19 -100 -69 0 -20 6 -45 13 -54 12 -17 94 -18
1397 -15 1518 4 1456 1 1519 62 62 60 166 320 216 540 32 144 35 228 8 264
-31 42 -68 64 -114 69 l-44 5 -37 -76 c-176 -357 -398 -563 -683 -636 -131
-34 -285 -42 -730 -38 -417 3 -420 3 -463 26 -33 17 -49 35 -65 70 -22 47 -22
53 -25 765 l-3 718 448 -3 448 -3 56 -26 c84 -40 132 -89 206 -213 80 -133
121 -176 167 -176 62 0 61 -12 64 489 2 251 0 471 -3 489 -8 46 -45 68 -85 52
-40 -17 -78 -61 -164 -194 -81 -125 -135 -177 -210 -203 -46 -16 -94 -18 -486
-18 l-435 0 -3 650 c-2 666 1 737 36 785 42 56 31 55 622 55 485 0 552 -2 613
-17 210 -55 333 -188 447 -489 38 -100 40 -104 67 -101 42 5 94 34 117 65 18
25 21 42 20 125 -3 205 -90 573 -142 599 -10 4 -632 9 -1384 11 -1349 2 -1367
2 -1378 -17z"/>
</g>
</svg>
