<svg xmlns="http://www.w3.org/2000/svg" xmlns:xlink="http://www.w3.org/1999/xlink" width="500" zoomAndPan="magnify" viewBox="0 0 375 374.999991" height="500" preserveAspectRatio="xMidYMid meet" version="1.0"><defs><g/><clipPath id="8b500a6759"><path d="M 10.839844 10.839844 L 364.089844 10.839844 L 364.089844 364.089844 L 10.839844 364.089844 Z M 10.839844 10.839844 " clip-rule="nonzero"/></clipPath></defs><path fill="#ff0000" d="M 359.875 190.519531 C 357.988281 193.617188 354.785156 195.441406 351.621094 197.207031 C 352.960938 199.140625 352.910156 201.738281 352.316406 204.011719 C 351.71875 206.289062 350.636719 208.414062 350.03125 210.691406 C 349.425781 212.964844 349.582031 215.972656 350.898438 217.914062 C 349.082031 217.992188 347.558594 219.449219 346.816406 221.117188 C 346.085938 222.789062 345.96875 224.640625 345.8125 226.457031 C 345.65625 228.273438 345.410156 230.148438 344.464844 231.699219 L 344.503906 231.710938 C 347.113281 232.746094 349.824219 233.847656 351.671875 235.964844 C 352.210938 236.589844 352.667969 237.296875 352.949219 238.054688 C 353.597656 239.8125 353.332031 241.804688 352.609375 243.523438 C 351.886719 245.25 350.742188 246.765625 349.621094 248.257812 C 351.085938 249.714844 353.488281 251.351562 354.152344 253.316406 C 354.570312 254.566406 354.613281 255.914062 354.796875 257.21875 C 355.441406 261.847656 357.902344 266.203125 357.746094 270.878906 L 357.746094 270.890625 C 357.738281 271.367188 357.386719 271.765625 356.976562 272.011719 C 356.566406 272.257812 356.105469 272.394531 355.6875 272.609375 C 354.230469 273.351562 353.460938 275 353.160156 276.613281 C 352.855469 278.222656 352.902344 279.882812 352.5625 281.484375 C 351.871094 284.742188 349.371094 287.390625 347.203125 289.929688 C 348.382812 291.414062 349.582031 292.917969 350.257812 294.6875 C 350.929688 296.453125 351.007812 298.550781 350 300.152344 C 348.773438 302.113281 345.8125 303.050781 343.578125 303.640625 C 345.226562 305.242188 346.976562 307.007812 347.304688 309.28125 C 347.527344 310.867188 347.042969 312.472656 347.246094 314.058594 C 347.421875 315.421875 348.113281 316.683594 349.003906 317.730469 C 349.890625 318.777344 350.976562 319.652344 352.039062 320.523438 C 350.105469 323.421875 350.300781 327.574219 351.210938 330.941406 C 352.121094 334.308594 353.726562 337.453125 354.617188 340.832031 C 355.761719 345.136719 355.683594 349.757812 354.414062 354.023438 C 348.625 355.398438 341.914062 355.410156 336.28125 353.484375 C 333.695312 352.597656 331.214844 351.378906 328.539062 350.800781 C 325.863281 350.222656 322.640625 350.3125 320.464844 351.960938 C 319.46875 350.320312 317.933594 349.011719 316.160156 348.300781 C 314.097656 347.472656 311.8125 347.441406 309.617188 347.089844 C 307.421875 346.738281 304.980469 345.792969 303.742188 343.945312 C 303.210938 346.257812 302.128906 348.445312 300.597656 350.261719 C 300.050781 350.910156 299.386719 351.542969 298.546875 351.667969 C 297.914062 351.757812 297.285156 351.542969 296.691406 351.308594 C 294.445312 350.429688 292.230469 349.082031 290.253906 347.695312 C 289.085938 347.636719 288.03125 348.398438 287.21875 349.238281 C 286.410156 350.078125 285.703125 351.0625 284.71875 351.6875 C 282.191406 353.28125 278.753906 352.039062 275.972656 353.121094 C 273.6875 354.011719 271.753906 356.167969 270.503906 358.277344 C 269.703125 357.597656 268.628906 357.359375 267.585938 357.273438 C 266.539062 357.1875 265.488281 357.222656 264.464844 356.992188 C 262.929688 356.648438 261.582031 355.738281 260.089844 355.261719 C 257.972656 354.578125 255.648438 354.785156 253.539062 354.089844 C 251.144531 353.308594 249.273438 351.457031 247.496094 349.667969 C 245.277344 351.328125 244.253906 351.699219 241.675781 352.722656 C 240.640625 353.132812 239.515625 353.492188 238.433594 353.230469 C 237.535156 353.007812 236.792969 352.382812 236.136719 351.726562 C 234.214844 349.816406 232.660156 347.355469 231.585938 344.855469 C 228.773438 346.300781 225.28125 345.226562 222.261719 346.183594 C 220.15625 346.855469 218.269531 348.644531 217.539062 350.742188 C 216.011719 349.289062 213.582031 349.277344 211.570312 349.90625 C 209.558594 350.53125 207.742188 351.671875 205.730469 352.296875 C 203.007812 353.136719 199.980469 352.960938 197.375 351.800781 L 197.382812 351.234375 C 196.398438 354.984375 193.710938 358.253906 190.226562 359.945312 C 189.242188 360.425781 188.148438 360.785156 187.074219 360.621094 C 186.167969 360.472656 185.355469 359.976562 184.613281 359.4375 C 181.886719 357.496094 179.566406 354.984375 177.828125 352.113281 C 174.730469 352.640625 171.578125 353.171875 168.695312 351.917969 C 167.222656 351.285156 165.941406 350.222656 164.441406 349.664062 C 162.078125 348.792969 159.246094 349.359375 157.390625 351.058594 C 157.019531 349.253906 155.464844 347.75 153.785156 347 C 152.097656 346.246094 150.230469 346.042969 148.398438 345.847656 C 146.5625 345.652344 144.695312 345.4375 143.015625 344.664062 C 142.726562 347.351562 141.652344 349.410156 139.835938 351.410156 C 139.101562 352.222656 138.214844 352.960938 137.140625 353.128906 C 136.449219 353.238281 135.734375 353.089844 135.0625 352.90625 C 132.597656 352.242188 130.265625 351.128906 128.207031 349.632812 C 124.847656 350.785156 122.855469 354.300781 119.390625 355.074219 C 117.757812 355.433594 116.019531 355.113281 114.390625 355.472656 C 113.113281 355.757812 111.96875 356.429688 110.710938 356.800781 C 108.492188 357.457031 105.976562 357.152344 103.992188 358.335938 C 102.945312 355.964844 100.398438 354.03125 97.910156 353.316406 C 96.445312 352.898438 94.894531 352.867188 93.398438 352.546875 C 90.550781 351.941406 87.433594 349.742188 85.707031 347.402344 C 84.425781 348.582031 84.191406 348.808594 82.679688 349.6875 C 81.164062 350.566406 79.390625 351.082031 77.671875 350.828125 C 76.101562 350.59375 74.664062 349.695312 73.660156 348.476562 C 72.644531 347.253906 71.824219 345.226562 71.617188 343.652344 C 70.300781 345.757812 67.878906 347.058594 65.410156 347.3125 C 63.71875 347.488281 62 347.214844 60.332031 347.527344 C 58 347.964844 55.53125 349.957031 54.554688 352.113281 C 52.492188 350.589844 49.71875 350.394531 47.171875 350.75 C 43.078125 351.3125 39.273438 353.101562 35.289062 354.167969 C 30.691406 355.394531 24.265625 355.425781 20.632812 354.03125 C 19.351562 349.765625 19.285156 345.144531 20.425781 340.839844 C 21.324219 337.472656 22.9375 334.316406 23.835938 330.949219 C 24.746094 327.582031 24.949219 323.429688 23.007812 320.53125 C 24.082031 319.660156 25.15625 318.792969 26.042969 317.738281 C 26.929688 316.679688 27.625 315.433594 27.800781 314.066406 C 28.003906 312.480469 27.507812 310.871094 27.742188 309.289062 C 28.074219 307.015625 29.820312 305.246094 31.46875 303.644531 C 29.226562 303.070312 26.277344 302.121094 25.042969 300.160156 C 24.039062 298.558594 24.117188 296.460938 24.789062 294.691406 C 25.464844 292.925781 26.664062 291.410156 27.84375 289.9375 C 25.675781 287.398438 23.179688 284.761719 22.484375 281.492188 C 22.140625 279.890625 22.199219 278.230469 21.886719 276.621094 C 21.582031 275.007812 20.8125 273.359375 19.359375 272.617188 C 18.9375 272.402344 18.46875 272.265625 18.070312 272.019531 C 17.660156 271.773438 17.308594 271.375 17.300781 270.894531 L 17.300781 270.886719 C 17.132812 266.21875 19.59375 261.855469 20.25 257.226562 C 20.433594 255.917969 20.472656 254.574219 20.894531 253.320312 C 21.558594 251.359375 23.949219 249.730469 25.421875 248.265625 C 24.289062 246.769531 23.15625 245.257812 22.4375 243.53125 C 21.714844 241.804688 21.441406 239.8125 22.09375 238.0625 C 22.378906 237.292969 22.835938 236.589844 23.375 235.972656 C 25.207031 233.855469 27.933594 232.742188 30.542969 231.71875 L 30.582031 231.707031 C 29.632812 230.144531 29.398438 228.28125 29.234375 226.464844 C 29.078125 224.648438 28.960938 222.78125 28.226562 221.125 C 27.496094 219.464844 25.972656 218 24.144531 217.921875 C 25.464844 215.96875 25.621094 212.96875 25.015625 210.695312 C 24.410156 208.425781 23.328125 206.292969 22.730469 204.019531 C 22.136719 201.742188 22.085938 199.148438 23.421875 197.214844 C 20.261719 195.449219 17.054688 193.621094 15.171875 190.527344 C 14.457031 189.367188 13.972656 187.980469 14.214844 186.640625 C 14.402344 185.625 14.984375 184.726562 15.621094 183.90625 C 16.65625 182.566406 17.847656 181.359375 19.175781 180.300781 C 20.0625 179.601562 21.019531 178.945312 21.726562 178.058594 C 22.425781 177.167969 22.847656 175.957031 22.46875 174.882812 C 22.261719 173.097656 22.320312 170.949219 22.886719 169.230469 C 23.519531 167.308594 24.933594 165.707031 25.511719 163.765625 C 26.175781 161.546875 25.667969 158.929688 24.144531 157.191406 C 25.210938 156.742188 26.3125 156.265625 27.078125 155.394531 C 27.757812 154.613281 28.101562 153.597656 28.363281 152.59375 C 29.105469 149.78125 29.363281 146.863281 29.617188 143.972656 C 29.644531 143.6875 29.664062 143.375 29.507812 143.132812 C 29.363281 142.886719 28.425781 142.644531 28.246094 142.867188 C 25.042969 142.097656 22.417969 139.316406 21.832031 136.0625 C 21.246094 132.8125 22.75 129.296875 25.492188 127.460938 C 23.101562 125.960938 21.421875 123.320312 20.5625 120.625 C 19.707031 117.933594 19.429688 115.089844 19.003906 112.296875 C 18.574219 109.503906 17.945312 106.671875 16.492188 104.25 C 18.769531 102.542969 21.21875 100.890625 21.96875 98.265625 C 22.527344 96.351562 22.398438 94.292969 22.859375 92.347656 C 23.480469 89.664062 25.25 87.273438 27.621094 85.886719 C 26.453125 84.402344 25.296875 82.476562 24.714844 80.683594 C 24.128906 78.886719 24.117188 76.828125 25.09375 75.207031 C 26.324219 73.144531 29.070312 72.09375 31.414062 71.546875 L 31.507812 71.546875 C 30.347656 70.6875 30.394531 70.746094 29.558594 69.574219 C 28.542969 68.148438 28.101562 66.382812 27.835938 64.644531 C 27.574219 62.90625 27.457031 61.140625 26.96875 59.449219 C 27.007812 58.25 26.363281 56.824219 25.355469 56.167969 C 24.691406 55.742188 23.824219 55.46875 23.5 54.742188 C 23.296875 54.273438 23.394531 53.71875 23.65625 53.289062 C 23.921875 52.859375 24.398438 52.460938 24.847656 52.214844 C 24.703125 47.398438 22.738281 42.851562 21.5 38.195312 C 19.964844 32.480469 19.496094 26.496094 20.125 20.621094 C 23.765625 19.222656 30.71875 19.566406 35.316406 20.796875 C 39.300781 21.863281 43.109375 23.648438 47.199219 24.214844 C 49.738281 24.566406 52.511719 24.371094 54.582031 22.847656 C 55.558594 25.015625 58.027344 27.007812 60.363281 27.4375 C 62.03125 27.75 63.75 27.476562 65.4375 27.652344 C 67.917969 27.90625 70.328125 29.203125 71.648438 31.3125 C 71.859375 29.742188 72.679688 27.71875 73.6875 26.488281 C 74.703125 25.269531 76.136719 24.378906 77.699219 24.132812 C 79.429688 23.871094 81.195312 24.398438 82.707031 25.277344 C 84.222656 26.144531 84.457031 26.371094 85.734375 27.5625 C 87.472656 25.21875 90.578125 23.019531 93.429688 22.414062 C 94.921875 22.101562 96.472656 22.0625 97.9375 21.644531 C 100.4375 20.929688 102.976562 19.007812 104.019531 16.625 C 106.011719 17.808594 108.523438 17.496094 110.738281 18.160156 C 111.988281 18.53125 113.140625 19.203125 114.417969 19.488281 C 116.058594 19.847656 117.789062 19.527344 119.417969 19.886719 C 122.886719 20.65625 124.875 24.183594 128.234375 25.328125 C 130.296875 23.832031 132.628906 22.710938 135.089844 22.054688 C 135.773438 21.867188 136.476562 21.722656 137.167969 21.832031 C 138.242188 21.996094 139.140625 22.738281 139.863281 23.550781 C 141.671875 25.550781 142.753906 27.609375 143.046875 30.296875 C 144.726562 29.527344 146.589844 29.308594 148.425781 29.113281 C 150.261719 28.917969 152.125 28.714844 153.816406 27.960938 C 155.503906 27.210938 157.046875 25.707031 157.417969 23.902344 C 159.273438 25.609375 162.105469 26.167969 164.46875 25.296875 C 165.980469 24.742188 167.25 23.675781 168.726562 23.042969 C 171.605469 21.800781 174.757812 22.328125 177.855469 22.847656 C 179.59375 19.976562 181.914062 17.476562 184.640625 15.523438 C 185.390625 14.984375 186.191406 14.488281 187.101562 14.339844 C 188.1875 14.175781 189.277344 14.535156 190.257812 15.015625 C 193.742188 16.703125 196.425781 19.976562 197.414062 23.726562 L 197.402344 23.160156 C 200.011719 22 203.039062 21.820312 205.761719 22.664062 C 207.773438 23.285156 209.585938 24.429688 211.597656 25.054688 C 213.609375 25.679688 216.03125 25.660156 217.566406 24.21875 C 218.289062 26.304688 220.171875 28.105469 222.289062 28.777344 C 225.308594 29.734375 228.804688 28.660156 231.617188 30.105469 C 232.691406 27.605469 234.242188 25.15625 236.167969 23.234375 C 236.820312 22.578125 237.5625 21.953125 238.460938 21.730469 C 239.542969 21.464844 240.667969 21.828125 241.703125 22.238281 C 244.269531 23.261719 245.304688 23.636719 247.523438 25.292969 C 249.296875 23.503906 251.164062 21.660156 253.566406 20.871094 C 255.675781 20.175781 258.007812 20.382812 260.117188 19.699219 C 261.609375 19.222656 262.957031 18.3125 264.492188 17.96875 C 265.515625 17.746094 266.570312 17.785156 267.613281 17.6875 C 268.660156 17.601562 269.734375 17.355469 270.53125 16.683594 C 271.785156 18.789062 273.707031 20.960938 276 21.839844 C 278.792969 22.914062 282.230469 21.671875 284.75 23.273438 C 285.746094 23.898438 286.4375 24.882812 287.246094 25.722656 C 288.058594 26.5625 289.113281 27.324219 290.285156 27.265625 C 292.253906 25.890625 294.480469 24.539062 296.71875 23.652344 C 297.316406 23.417969 297.9375 23.203125 298.574219 23.292969 C 299.414062 23.410156 300.078125 24.042969 300.625 24.699219 C 302.15625 26.511719 303.242188 28.703125 303.769531 31.015625 C 305.007812 29.171875 307.449219 28.222656 309.644531 27.871094 C 311.84375 27.519531 314.117188 27.488281 316.1875 26.660156 C 317.960938 25.945312 319.496094 24.640625 320.492188 23 C 322.667969 24.660156 325.890625 24.746094 328.566406 24.160156 C 331.242188 23.582031 333.722656 22.355469 336.308594 21.476562 C 341.945312 19.550781 349.175781 19.238281 354.980469 20.617188 C 355.601562 26.492188 355.132812 32.476562 353.601562 38.191406 C 352.351562 42.847656 350.390625 47.386719 350.253906 52.210938 C 350.703125 52.441406 351.171875 52.84375 351.445312 53.285156 C 351.71875 53.722656 351.804688 54.28125 351.601562 54.738281 C 351.277344 55.472656 350.410156 55.734375 349.746094 56.164062 C 348.738281 56.820312 348.09375 58.246094 348.132812 59.445312 C 347.65625 61.132812 347.539062 62.902344 347.265625 64.640625 C 346.992188 66.378906 346.5625 68.132812 345.546875 69.570312 C 344.707031 70.738281 344.753906 70.683594 343.59375 71.539062 L 343.6875 71.539062 C 346.03125 72.085938 348.765625 73.140625 350.007812 75.199219 C 350.972656 76.820312 350.972656 78.882812 350.386719 80.675781 C 349.800781 82.476562 348.648438 84.398438 347.480469 85.882812 C 349.851562 87.269531 351.621094 89.667969 352.246094 92.34375 C 352.695312 94.289062 352.578125 96.335938 353.132812 98.261719 C 353.894531 100.878906 356.335938 102.539062 358.609375 104.246094 C 357.144531 106.667969 356.527344 109.5 356.101562 112.292969 C 355.671875 115.085938 355.398438 117.925781 354.539062 120.621094 C 353.679688 123.316406 352.007812 125.953125 349.609375 127.457031 C 352.351562 129.292969 353.847656 132.816406 353.269531 136.058594 C 352.691406 139.300781 350.066406 142.09375 346.855469 142.863281 C 346.679688 142.640625 345.742188 142.882812 345.59375 143.128906 C 345.449219 143.375 345.46875 143.675781 345.488281 143.964844 C 345.742188 146.867188 346.003906 149.773438 346.738281 152.585938 C 347 153.59375 347.34375 154.609375 348.027344 155.390625 C 348.785156 156.261719 349.890625 156.738281 350.957031 157.1875 C 349.433594 158.925781 348.925781 161.542969 349.589844 163.757812 C 350.167969 165.703125 351.582031 167.304688 352.214844 169.226562 C 352.78125 170.933594 352.839844 173.082031 352.636719 174.878906 C 352.253906 175.945312 352.675781 177.164062 353.378906 178.050781 C 354.078125 178.941406 355.039062 179.585938 355.925781 180.296875 C 357.246094 181.351562 358.445312 182.5625 359.480469 183.902344 C 360.113281 184.722656 360.699219 185.621094 360.886719 186.636719 C 361.085938 187.972656 360.585938 189.347656 359.875 190.519531 Z M 359.875 190.519531 " fill-opacity="1" fill-rule="nonzero"/><g clip-path="url(#8b500a6759)"><path fill="#004aad" d="M 10.839844 10.839844 L 364.160156 10.839844 L 364.160156 364.160156 L 10.839844 364.160156 Z M 10.839844 10.839844 " fill-opacity="1" fill-rule="nonzero"/></g><g fill="#ffffff" fill-opacity="1"><g transform="translate(41.569343, 216.680421)"><g><path d="M 5.039062 0 L 28.925781 0 L 28.925781 -47.332031 L 58.617188 0 L 79.433594 0 L 79.433594 -84.800781 L 55.878906 -84.800781 L 55.878906 -42.511719 L 30.238281 -84.800781 L 5.039062 -84.800781 Z M 62.230469 2.300781 L 64.640625 6.027344 L 85.460938 6.027344 L 85.460938 -78.777344 L 81.734375 -78.777344 L 81.734375 2.300781 Z M 11.066406 6.027344 L 34.949219 6.027344 L 34.949219 -33.308594 L 31.226562 -39.222656 L 31.226562 2.300781 L 11.066406 2.300781 Z M 11.066406 6.027344 "/></g></g></g><g fill="#ffffff" fill-opacity="1"><g transform="translate(126.583847, 216.680421)"><g><path d="M 24.542969 0 L 27.71875 -11.066406 L 55.4375 -11.066406 L 58.617188 0 L 83.597656 0 L 55.21875 -84.800781 L 29.144531 -84.800781 L 0.875 0 Z M 50.617188 -28.816406 L 33.089844 -28.816406 L 41.632812 -59.164062 Z M 64.640625 6.027344 L 89.621094 6.027344 L 61.246094 -78.777344 L 59.601562 -78.777344 L 86.445312 1.316406 L 85.789062 2.300781 L 63.546875 2.300781 Z M 26.296875 2.300781 L 8.109375 2.300781 L 6.902344 6.027344 L 30.566406 6.027344 L 33.746094 -5.039062 L 54.78125 -5.039062 L 53.6875 -8.765625 L 29.472656 -8.765625 C 28.488281 -5.257812 27.171875 -0.984375 26.296875 2.300781 Z M 36.15625 -31.117188 L 41.414062 -31.117188 L 44.375 -41.632812 L 41.632812 -50.945312 C 39.882812 -44.484375 38.238281 -38.347656 36.15625 -31.117188 Z M 36.15625 -31.117188 "/></g></g></g><g fill="#ffffff" fill-opacity="1"><g transform="translate(211.598351, 216.680421)"><g><path d="M 5.039062 0 L 29.144531 0 L 29.144531 -35.390625 L 54.015625 -35.390625 L 54.015625 0 L 78.007812 0 L 78.007812 -84.800781 L 54.015625 -84.800781 L 54.015625 -53.6875 L 29.144531 -53.6875 L 29.144531 -84.800781 L 5.039062 -84.800781 Z M 84.035156 6.027344 L 84.035156 -78.777344 L 80.308594 -78.777344 L 80.308594 2.300781 L 60.039062 2.300781 L 60.039062 6.027344 Z M 11.066406 6.027344 L 35.167969 6.027344 L 35.167969 -29.363281 L 51.714844 -29.363281 L 51.714844 -33.089844 L 31.445312 -33.089844 L 31.445312 2.300781 L 11.066406 2.300781 Z M 35.167969 -78.777344 L 31.445312 -78.777344 L 31.445312 -55.988281 L 35.167969 -55.988281 Z M 35.167969 -78.777344 "/></g></g></g><g fill="#ffffff" fill-opacity="1"><g transform="translate(295.079108, 216.680421)"><g><path d="M 19.503906 1.316406 C 26.40625 1.316406 31.882812 -4.273438 31.882812 -11.175781 C 31.882812 -18.078125 26.40625 -23.664062 19.503906 -23.664062 C 12.601562 -23.664062 7.011719 -18.078125 7.011719 -11.175781 C 7.011719 -4.273438 12.601562 1.316406 19.503906 1.316406 Z M 19.503906 3.617188 C 18.40625 3.617188 17.3125 3.507812 16.324219 3.285156 C 18.625 5.808594 21.804688 7.339844 25.527344 7.339844 C 32.429688 7.339844 37.910156 1.753906 37.910156 -5.148438 C 37.910156 -8.765625 36.375 -12.050781 33.855469 -14.351562 C 34.074219 -13.367188 34.183594 -12.269531 34.183594 -11.175781 C 34.183594 -2.957031 27.71875 3.617188 19.503906 3.617188 Z M 19.503906 3.617188 "/></g></g></g></svg>