<?xml version="1.0" standalone="no"?>
<!DOCTYPE svg PUBLIC "-//W3C//DTD SVG 20010904//EN"
 "http://www.w3.org/TR/2001/REC-SVG-20010904/DTD/svg10.dtd">
<svg version="1.0" xmlns="http://www.w3.org/2000/svg"
 width="2000.000000pt" height="735.000000pt" viewBox="0 0 2000.000000 735.000000"
 preserveAspectRatio="xMidYMid meet">

<g transform="translate(0.000000,735.000000) scale(0.100000,-0.100000)"
fill="#ffb454" stroke="none">
<path d="M17520 7220 c-69 -4 -181 -13 -250 -19 -388 -34 -483 -41 -665 -51
-298 -17 -450 -57 -607 -160 -85 -56 -113 -86 -127 -136 -16 -58 23 -1921 49
-2319 5 -82 14 -229 20 -325 6 -96 15 -231 20 -300 5 -69 15 -205 21 -302 l12
-177 61 -5 c34 -3 189 -10 346 -16 157 -6 377 -15 490 -20 113 -5 320 -14 460
-20 140 -6 347 -15 460 -20 113 -5 282 -12 377 -16 95 -3 187 -7 205 -9 l33
-3 -2 -93 c-1 -52 -7 -188 -13 -304 -5 -115 -15 -298 -20 -405 -5 -107 -14
-285 -20 -395 -6 -110 -15 -276 -19 -368 -5 -92 -11 -171 -15 -174 -3 -4 -64
-1 -134 6 -70 6 -206 18 -302 26 -96 8 -191 17 -210 20 -19 3 -123 12 -230 20
-107 9 -207 18 -222 21 l-28 6 0 512 0 513 -117 12 c-65 7 -210 19 -323 26
-113 8 -221 17 -240 20 -19 3 -130 12 -245 20 -116 8 -253 19 -305 24 -52 6
-98 7 -101 3 -8 -8 -27 -112 -83 -432 -48 -279 -69 -907 -40 -1170 30 -272
116 -585 179 -652 57 -62 373 -227 587 -307 192 -72 358 -113 568 -141 280
-37 1374 -41 1585 -5 185 32 360 88 562 181 40 18 140 63 222 99 100 45 159
78 181 100 l32 33 44 344 c24 188 51 406 59 483 8 77 19 174 25 215 30 229 42
619 37 1140 -8 699 -24 1265 -38 1316 l-11 41 -71 7 c-40 3 -139 11 -222 16
-82 6 -213 15 -290 20 -77 5 -207 14 -290 20 -82 5 -217 14 -300 20 -82 5
-188 12 -235 15 -47 3 -137 10 -200 15 -63 5 -167 12 -230 15 -63 4 -131 8
-150 10 -19 2 -114 8 -210 15 -96 6 -198 13 -226 16 l-52 5 -6 47 c-3 26 -13
146 -21 267 -8 121 -17 231 -20 245 -3 14 -12 142 -20 285 -8 143 -17 305 -21
361 -7 107 6 175 47 256 25 48 73 98 96 98 10 0 79 5 153 11 83 6 231 8 382 4
l248 -7 2 -432 3 -431 210 -7 c116 -4 316 -12 445 -18 129 -6 298 -13 375 -16
482 -18 581 -21 585 -17 3 3 8 210 13 461 4 251 14 597 21 767 18 389 12 436
-66 587 -47 91 -195 271 -259 313 -98 67 -513 153 -969 201 -169 18 -798 27
-990 14z"/>
<path d="M6514 7180 c-182 -26 -368 -135 -512 -299 -86 -97 -264 -338 -320
-434 -47 -80 -85 -165 -96 -218 -8 -39 -34 -498 -41 -729 -3 -113 -10 -302
-15 -420 -5 -118 -12 -276 -15 -350 -8 -184 -23 -499 -35 -710 -5 -96 -12
-222 -15 -280 -3 -58 -10 -161 -15 -230 -5 -69 -12 -186 -16 -260 -8 -174 -45
-477 -86 -705 -30 -171 -32 -193 -32 -430 l0 -250 47 -175 c26 -96 54 -197 61
-225 98 -350 157 -576 191 -730 51 -230 89 -276 271 -326 44 -12 97 -26 119
-31 48 -11 241 -67 390 -113 152 -47 309 -83 413 -94 48 -5 272 -12 497 -16
436 -6 727 -17 996 -36 389 -29 768 44 1324 253 l140 53 -1 815 c-1 670 -4
855 -18 1039 -18 243 -25 269 -82 326 -31 31 -33 32 -154 38 -68 4 -270 7
-450 7 l-326 0 -12 -187 c-7 -104 -17 -285 -22 -403 -20 -396 -29 -450 -96
-537 -34 -45 -104 -91 -167 -110 -55 -16 -258 -14 -652 7 -93 5 -277 14 -407
21 l-237 12 -5 41 c-3 23 -12 111 -21 196 -9 85 -17 169 -20 185 -29 237 -38
397 -38 655 0 271 5 364 39 805 8 105 21 278 29 385 9 107 19 242 25 300 5 58
12 164 15 235 3 72 13 236 21 365 8 129 19 363 23 520 11 364 22 403 131 454
44 21 56 21 743 24 l697 3 0 -971 0 -970 73 5 c39 3 176 10 302 15 127 6 305
15 397 21 92 5 179 9 193 9 l25 0 0 1558 c0 1463 -1 1559 -18 1591 -16 31 -29
38 -197 98 -383 136 -468 158 -675 172 -253 18 -2275 44 -2366 31z"/>
<path d="M277 7144 c-4 -10 -13 -102 -22 -204 -8 -102 -17 -194 -20 -205 -2
-11 -11 -123 -20 -250 -8 -126 -17 -243 -20 -260 -3 -16 -12 -160 -20 -320 -8
-159 -19 -369 -25 -465 -5 -96 -17 -467 -26 -825 -14 -553 -15 -931 -9 -2535
3 -1037 7 -1886 8 -1887 1 0 486 -6 1077 -12 591 -7 1496 -18 2010 -26 514 -8
986 -15 1048 -15 l112 0 0 723 0 724 -122 6 c-68 4 -316 14 -553 22 -236 8
-515 19 -620 25 -104 5 -284 12 -400 15 -227 6 -574 21 -723 31 l-92 6 2 731
3 732 922 3 c731 2 921 5 918 15 -2 6 -9 62 -15 122 -6 61 -15 151 -20 200
-19 182 -30 287 -40 383 -5 53 -12 114 -16 135 l-6 37 -959 0 -959 0 -2 601
c-2 330 -1 603 1 605 2 2 577 4 1278 4 l1273 0 0 918 0 919 -317 7 c-175 3
-608 11 -963 16 -952 15 -1812 29 -2271 36 -395 7 -407 7 -412 -12z"/>
<path d="M12415 7125 c-184 -13 -317 -24 -555 -45 -63 -6 -227 -19 -365 -30
-268 -20 -343 -35 -415 -85 -50 -35 -84 -85 -110 -165 -12 -36 -30 -77 -40
-92 -11 -14 -62 -111 -114 -215 -73 -144 -99 -207 -112 -268 -15 -72 -17 -205
-18 -1347 l-1 -1267 -35 -3 -35 -3 0 -1278 -1 -1278 23 -97 c39 -162 112 -287
249 -427 95 -98 150 -140 225 -174 92 -41 143 -49 334 -56 193 -7 518 -33 845
-69 462 -51 450 -51 1055 -51 552 1 594 2 870 28 352 33 448 48 520 81 102 47
230 145 294 226 33 41 40 60 54 146 41 243 57 357 66 464 12 139 28 768 41
1680 6 371 15 893 20 1160 16 746 18 2227 3 2270 -22 68 -83 296 -102 387 -24
112 -53 160 -122 203 -125 76 -543 187 -904 239 -490 70 -1195 98 -1670 66z
m396 -1855 c609 -11 655 -17 736 -102 72 -75 68 -20 71 -945 l3 -833 -24 0
c-23 0 -24 -4 -26 -62 -2 -151 -21 -700 -26 -768 -2 -41 -7 -187 -11 -323 -11
-467 -16 -538 -42 -575 -45 -62 -222 -129 -417 -157 -138 -20 -292 -19 -625 6
-322 24 -327 26 -369 111 -20 43 -20 54 -27 1678 -8 1836 -14 1676 69 1852 24
51 50 98 58 105 31 25 21 24 630 13z"/>
</g>
</svg>
