<?xml version="1.0" standalone="no"?>
<!DOCTYPE svg PUBLIC "-//W3C//DTD SVG 20010904//EN"
 "http://www.w3.org/TR/2001/REC-SVG-20010904/DTD/svg10.dtd">
<svg version="1.0" xmlns="http://www.w3.org/2000/svg"
 width="1573.000000pt" height="1414.000000pt" viewBox="0 0 1573.000000 1414.000000"
 preserveAspectRatio="xMidYMid meet">

<g transform="translate(0.000000,1414.000000) scale(0.100000,-0.100000)"
fill="#194b4d" stroke="none">
<path d="M10380 14133 c-594 -26 -1132 -85 -1847 -201 -60 -10 -73 -20 -113
-77 -18 -26 -41 -46 -62 -52 -31 -10 -30 -11 27 -12 33 0 121 6 195 14 161 17
242 19 220 5 -25 -16 -4 -12 184 40 398 108 719 165 1121 197 162 13 814 9
970 -5 337 -32 703 -95 1000 -172 306 -79 459 -139 790 -309 741 -381 1325
-884 1850 -1591 152 -206 370 -537 430 -655 247 -485 381 -1192 404 -2130 l7
-290 35 -74 34 -73 39 76 39 76 -6 242 c-48 1776 -604 3154 -1600 3970 -580
474 -1372 800 -2302 947 -400 64 -979 94 -1415 74z"/>
<path d="M4285 12949 c-117 -8 -207 -29 -328 -77 -100 -39 -99 -38 -162 -207
-70 -187 -137 -289 -267 -402 -71 -62 -128 -93 -270 -147 -62 -24 -210 -80
-328 -126 -264 -101 -468 -168 -620 -205 -364 -88 -536 -161 -728 -309 -161
-123 -253 -229 -427 -491 -547 -823 -863 -1677 -966 -2610 -44 -407 -47 -753
-8 -1305 98 -1410 411 -2875 990 -4639 133 -404 289 -843 315 -889 34 -58 96
-101 240 -166 338 -153 550 -203 1614 -382 876 -147 1707 -207 2410 -174 529
25 744 54 1420 195 368 76 517 106 755 150 632 117 1140 339 1585 694 52 41
176 154 275 251 218 212 265 257 420 392 240 210 447 446 590 673 87 137 199
375 249 525 198 595 98 1175 -268 1567 -179 192 -565 433 -915 572 -254 102
-452 153 -836 217 -1341 222 -2361 395 -2399 405 -71 19 -99 59 -130 184 -15
61 -56 222 -92 358 -100 380 -129 530 -178 922 -87 697 -47 1134 142 1560 84
191 200 472 282 685 45 118 112 289 147 380 128 324 159 555 108 801 -56 267
-194 506 -433 746 -304 307 -671 523 -1135 672 -136 43 -468 126 -612 152
-146 26 -306 36 -440 28z m1317 -2075 c95 -48 162 -100 263 -207 110 -115 147
-139 286 -181 110 -33 172 -85 215 -178 25 -55 29 -75 29 -154 l0 -92 -111
-223 c-61 -123 -146 -289 -188 -369 -74 -139 -77 -143 -71 -95 8 59 36 179 76
324 54 196 79 334 81 459 2 99 -1 123 -15 146 -37 57 -88 59 -290 11 -955
-223 -1831 -660 -2597 -1295 -58 -48 -190 -155 -295 -239 -104 -84 -245 -201
-311 -261 l-122 -109 35 117 c82 273 171 486 254 609 87 129 306 388 521 616
265 281 458 391 1013 577 356 120 446 155 605 236 143 74 265 159 372 258 40
37 82 72 93 77 31 14 100 2 157 -27z m349 -673 c36 -36 37 -60 3 -159 -145
-427 -346 -798 -885 -1633 -224 -347 -699 -1052 -883 -1311 -23 -32 -81 -115
-131 -185 -370 -527 -922 -1293 -1216 -1684 -172 -230 -241 -331 -254 -369
-19 -59 -19 -59 -103 -3 -255 169 -456 504 -491 817 -13 116 -9 158 90 771 55
346 71 457 93 635 14 107 27 227 31 265 15 157 66 331 140 479 137 271 345
496 844 913 504 420 996 746 1516 1003 269 132 387 182 820 348 165 63 316
120 335 128 50 19 58 18 91 -15z m58 -933 c-48 -242 -72 -756 -50 -1096 7
-103 14 -198 16 -212 2 -14 6 -59 10 -100 26 -309 90 -577 215 -891 69 -174
275 -652 298 -692 29 -49 81 -74 252 -121 91 -25 278 -83 416 -130 304 -102
423 -136 619 -176 320 -66 502 -128 786 -271 268 -134 708 -424 804 -530 52
-58 88 -141 93 -215 5 -73 -8 -104 -44 -104 -44 0 -61 17 -112 112 -208 384
-513 597 -1048 731 -249 63 -674 126 -1069 159 -198 16 -864 16 -1070 0 -676
-54 -1264 -175 -1933 -397 -243 -81 -331 -120 -389 -171 l-38 -33 50 0 c91 0
197 26 400 99 361 129 684 218 1035 284 195 36 517 81 660 92 47 3 96 8 110
10 103 16 498 26 855 21 448 -7 823 -31 1023 -67 530 -95 977 -366 1354 -820
117 -140 143 -188 143 -265 0 -208 -247 -412 -734 -607 -167 -67 -569 -200
-1611 -535 -162 -52 -396 -127 -520 -168 -124 -40 -380 -123 -570 -185 -434
-141 -686 -231 -1054 -376 -671 -265 -885 -344 -1156 -426 -375 -113 -978
-277 -1112 -303 -233 -44 -448 -22 -637 68 -69 32 -151 105 -151 134 0 9 17
41 37 70 47 69 50 127 10 221 -25 56 -28 77 -32 215 -2 83 -16 256 -31 382
-20 169 -28 280 -28 420 -1 367 25 402 507 679 291 167 743 395 987 498 428
181 646 261 1019 374 836 253 1714 382 2357 345 355 -20 623 -60 910 -136 123
-33 166 -51 389 -160 181 -89 306 -140 327 -133 17 6 -144 170 -227 231 -291
216 -764 335 -1410 356 -756 23 -1425 -64 -2220 -290 -200 -57 -631 -200 -830
-276 -137 -53 -351 -123 -375 -123 -3 0 49 54 115 121 l120 120 -100 -46
c-295 -135 -530 -293 -1115 -746 -285 -221 -399 -303 -408 -294 -4 4 -7 167
-7 363 0 324 12 551 39 757 3 17 8 60 11 98 4 37 11 67 15 67 29 0 159 -138
250 -265 94 -130 183 -221 237 -241 39 -15 44 -15 80 2 21 11 54 40 73 65 19
26 58 65 85 86 80 64 173 168 300 339 65 87 200 263 300 389 555 703 1076
1410 1594 2162 115 168 164 225 220 258 35 20 -183 -364 -363 -640 -242 -370
-449 -726 -433 -742 12 -11 104 52 162 112 75 77 301 386 510 700 325 486 564
903 866 1509 139 280 195 376 220 376 3 0 2 -19 -2 -42z"/>
<path d="M4675 9526 c-120 -195 -500 -762 -674 -1006 -298 -417 -603 -819
-1322 -1745 -482 -621 -563 -729 -529 -705 69 49 472 461 699 715 693 774
1476 1855 1771 2445 105 210 145 322 138 391 -3 33 -6 30 -83 -95z"/>
<path d="M8485 4727 c-126 -129 -255 -252 -285 -275 -73 -54 -268 -161 -520
-286 -437 -217 -704 -326 -1120 -460 -271 -87 -375 -138 -483 -235 -34 -31
-37 -36 -20 -42 45 -18 115 -6 327 55 740 216 1286 455 1719 752 139 95 222
161 362 286 126 112 194 192 230 269 25 56 45 169 29 169 -5 0 -112 -105 -239
-233z"/>
<path d="M5755 3404 c-249 -61 -892 -201 -1185 -258 -545 -106 -1024 -180
-1455 -225 -301 -31 -714 -61 -855 -61 -36 0 -83 -5 -104 -11 -47 -13 -106
-67 -86 -79 24 -15 434 -22 670 -10 410 19 699 50 1429 151 239 32 439 58 444
56 13 -4 -551 -207 -768 -275 -289 -91 -454 -138 -750 -213 l-270 -68 83 0
c174 -2 408 37 729 120 399 103 759 225 1459 494 181 70 415 158 519 197 190
69 238 92 353 166 l61 40 -31 6 c-55 11 -100 5 -243 -30z"/>
<path d="M9520 12563 c-25 -1 -126 -7 -225 -13 -398 -24 -949 -97 -1510 -201
-217 -40 -228 -44 -264 -84 -17 -20 -31 -39 -31 -43 0 -19 93 -52 143 -52 56
0 261 51 502 125 216 66 249 70 402 56 349 -32 564 -25 998 32 229 30 256 31
580 31 298 0 361 -3 510 -23 640 -86 1108 -242 1579 -525 278 -168 384 -250
562 -437 795 -835 1183 -1568 1413 -2669 67 -318 131 -771 149 -1055 l9 -130
-38 -62 c-68 -109 -61 -141 30 -128 39 5 50 11 55 28 9 34 7 374 -4 647 -69
1763 -629 3030 -1654 3745 -607 423 -1458 688 -2410 750 -199 13 -659 18 -796
8z"/>
<path d="M8580 10965 c-342 -25 -753 -82 -825 -114 -53 -24 -173 -101 -158
-101 7 0 88 -7 180 -16 207 -19 553 -21 818 -4 252 16 610 9 760 -14 180 -28
804 -191 1103 -287 492 -159 868 -375 1081 -620 150 -172 314 -498 651 -1289
202 -475 257 -665 267 -935 4 -131 2 -168 -20 -295 -33 -187 -37 -235 -42
-535 -6 -270 -19 -379 -60 -498 -32 -90 -19 -78 38 38 121 245 198 532 227
855 68 763 -220 1810 -679 2465 -336 480 -805 863 -1331 1088 -526 224 -1246
318 -2010 262z"/>
</g>
</svg>
